<svg width="28" height="29" viewBox="0 0 28 29" fill="none" xmlns="http://www.w3.org/2000/svg">
<path fill-rule="evenodd" clip-rule="evenodd" d="M25.2 14.5C25.2 20.6856 20.1856 25.7 14 25.7C7.8144 25.7 2.79999 20.6856 2.79999 14.5C2.79999 8.31446 7.8144 3.30005 14 3.30005C20.1856 3.30005 25.2 8.31446 25.2 14.5ZM14 7.50005C14.5799 7.50005 15.05 7.97015 15.05 8.55005V14.85C15.05 15.4299 14.5799 15.9 14 15.9C13.4201 15.9 12.95 15.4299 12.95 14.85V8.55005C12.95 7.97015 13.4201 7.50005 14 7.50005ZM14 21.5C14.7732 21.5 15.4 20.8732 15.4 20.1C15.4 19.3268 14.7732 18.7 14 18.7C13.2268 18.7 12.6 19.3268 12.6 20.1C12.6 20.8732 13.2268 21.5 14 21.5Z" fill="#C71919"/>
</svg>
