<svg xmlns="http://www.w3.org/2000/svg" xmlns:xlink="http://www.w3.org/1999/xlink" fill="none" viewBox="0 0 800 800">
  <defs>
    <path id="a" fill="#03243b" d="M495.5 362.7c-1.2 0-2.3-.3-3.3-1L301.2 248a6.5 6.5 0 0 1-2.3-8.9l82.5-138.3a6.5 6.5 0 0 1 8.9-2.3l191 113.8a6.5 6.5 0 0 1 2.2 9l-82.4 138.3a6.5 6.5 0 0 1-5.6 3.2zM386.9 100.5a3.5 3.5 0 0 0-3 1.7l-82.4 138.4a3.5 3.5 0 0 0 1.2 4.7l191 113.9a3.5 3.5 0 0 0 2.6.3 3.4 3.4 0 0 0 2.2-1.5l82.4-138.3a3.5 3.5 0 0 0-1.2-4.8L388.7 101c-.5-.3-1.2-.5-1.8-.5z"/>
  </defs>
  <path fill="#03243b" d="M486 625c-52.5-4.4-105.1-7.2-157.8-8.2-7.7-.1-17.3 1-20 8.2-1.6 4.4.3 9.4-.9 14-2 8-12 10.9-20.4 11.7-62.3 6.4-128-14.2-186.4 8.6-5.6 2.3-11.7 5.6-13.2 11.5-2.4 9.6 8.9 16.7 18.3 19.7 64.7 20.7 134.3 15.5 202.2 14a1777 1777 0 0 1 185 5.4c5.6.5 12.7 0 14.6-5.2 2.6-7-7-12.4-8.6-19.5-1.4-6 3.3-12.2 9.1-14.5s12.2-1.6 18.4-1c43.2 4.2 86.7 7.8 130 5 21-1.2 43.4-4.7 58.5-19.2-2.8-6-10.6-7.4-17.2-8-74-5.9-139.4-16.7-213.3-22.6zm110.9-379.9a.5.5 0 0 0 .4-.5.5.5 0 0 0-.4-.4.5.5 0 0 0-.4.4.5.5 0 0 0 .4.5z"/>
  <path fill="#fff" d="M476.7 201.4s-10.6 30.7-14.2 38c-13.2 26.7-18.6 39.5-42.7 51.4-15.4 7.7-17 8.4-29.7 1.6C379.9 287 375 270.8 373 271c-.6 0-.4.7-.4.8.2 1.5 2.8 8.8.9 8.4 0 0-2.2-2-3.8-8.3-1-4-1.7-4.8-2.5-4.4-1.1.6-.4 6.9 0 7.8l.6 2.7c-.2 0-1.7.2-3.7-5.1-1.2-3.2-2-7.3-3-6.6-1.4 1.1 2.2 10.8 1 11.3s-4.4-7.4-5.8-9.1c-.5-.7-2.3.8-.3 5.9 1.1 2.8 2.7 5.4 4 8 .2.5 1.4 2.5 1 3-1.4 2.2-8.2-2.3-9.2 0-.7 1.5 5.5 3.2 15.2 13.7a58.2 58.2 0 0 0 34.6 17.8c18.3 1.2 50.8-9 81.2-61.9 7.8-13.6 19.7-47.5-6.1-53.6z"/>
  <path fill="#03243b" d="M404.3 318.5h-2.8c-17.3-1.2-31.6-14.3-35.6-18.3-3.8-4.1-8-7.8-12.6-11-2.2-1.5-3.8-2.6-3-4.3 1-2.4 4-1.6 6.4-1l2.6.7-.6-1.2v-.2l-1.4-2.5a56 56 0 0 1-2.7-5.7c-1.8-4.6-1-7 .4-7.9a1.9 1.9 0 0 1 2.5.5c.8 1.2 1.6 2.5 2.2 3.8l.2.4c-.8-3.6-1-5.6.2-6.6a1.8 1.8 0 0 1 1.7-.4c1.3.4 1.9 2 2.8 5l.4 1.3c0-2.1.2-4.3 1.5-5a2.2 2.2 0 0 1 1.9 0c1 .5 1.7 1.7 2.7 5.2a1.9 1.9 0 0 1 1.7-1.8c1.8-.2 2.7 1.6 4.8 5.5 2.8 5.1 7 12.8 13.2 16.1 12 6.5 13 6 28.3-1.6 22.6-11.2 28.5-23.3 40.3-47.4l1.7-3.4c3.5-7.1 14-37.5 14.2-37.8l.4-1.3 1.3.3a20.1 20.1 0 0 1 14.8 11.7c6 13.8-2.4 35-7.7 44.2-31.8 55.4-64.6 62.7-79.8 62.7zm-49.5-32 .2.2c4.8 3.3 9.2 7.1 13 11.4 3.8 3.7 17.4 16.2 33.6 17.3 13 .8 46.7-3.4 79.8-61.2 5.9-10.2 12.8-29.7 7.6-41.5-2-4.7-5.8-8-11.4-9.5-2 6-10.6 30.3-13.8 36.8l-1.7 3.4c-12.1 24.7-18.2 37-41.7 48.8-7.6 3.7-12.2 6-16.4 6.3s-8-1.2-14.7-4.8-11-11-13.9-16.4c.4 2 .3 3-.4 3.8a2 2 0 0 1-2 .5c-1-.2-3.3-3.4-4.8-9.3 0 .8.1 1.6.4 2.5.3.7 1.2 3.3.2 4.3l-.7.7-.8-.3c-1-.2-2.2-.8-3.5-3.4.1 1.5 0 2.4-1.1 3-2 .8-3.4-1.8-5.6-6l.3.8c.8 1.8 1.6 3.6 2.6 5.4l1.3 2.5v.2c1 1.6 1.6 3.2.9 4.3-1.3 2-4 1.3-6.4.6zm13.4-10 .1.1z"/>
  <path fill="#fff" d="M250 630.7c-7 6-10.5 14.9-17.9 20.8-1.7 1.3-3.3 2.8-5 4-.4.3-2 .8-2 1.3 0 4 6.4 9.3 9.3 11.2 1.1.7 3.5 1.8 4.7.8 2.5-2.2 4-5.5 5.9-8.2 2.6-3.8 6.6-6.9 10.1-9.7 2.2-1.8 4.5-3.3 6.8-4.9.7-.4 2-1.1 2.4-2 .8-2-.8-3.3-2-4.8a35 35 0 0 0-7.5-6.4c-1.4-.9-3.5-3.3-4.8-2.1z"/>
  <path fill="#03243b" d="M237.8 670.7a8 8 0 0 1-4.2-1.5c-2.8-1.7-10-7.4-10-12.4 0-1.3 1.4-2 2.3-2.3l.3-.2 3-2.4 2-1.6c3.6-3 6.3-6.6 9-10.5 2.5-3.8 5.5-7.2 8.8-10.3 2-1.7 4.3.2 5.7 1.3l.9.7c2.9 1.9 5.5 4.1 7.8 6.7l.5.6c1.2 1.3 2.8 3 1.8 5.7a5 5 0 0 1-2.5 2.5l-.5.3-1.4 1c-1.8 1.3-3.6 2.4-5.2 3.8l-.6.5c-3.3 2.6-7 5.5-9.3 8.9a43 43 0 0 0-1.7 2.6 23.4 23.4 0 0 1-4.5 5.9c-.6.5-1.4.7-2.2.7zm-11-13.3c.5 2.9 5.1 7.2 8.4 9.3 1.5 1 2.7 1.1 2.9 1a24 24 0 0 0 3.8-5.2c.6-1 1.1-1.9 1.8-2.8a49 49 0 0 1 9.8-9.5l.6-.5 5.5-4 1.4-1 .6-.3 1.3-1c.3-.8 0-1.3-1.2-2.6l-.6-.7a33 33 0 0 0-8.3-7c-.6-.5-1.2-1-2-1.3-3 3-5.7 6.2-8 9.7-2.9 3.9-5.7 7.9-9.8 11.1l-1.8 1.5a50 50 0 0 1-4 3z"/>
  <path fill="#03243b" d="M244 661.3c3.8.3 2.4 3.9 1.2 6.2-2 3.9-6.8 14-12 13.9-13-.3-40-26.2-42.6-30.5-2.8-4.7-7.7-13.1-4.3-18.7 1.5-2.5 3.5-.9 5.3.3 4 3 6.8 6.5 11.1 9s10.5 5.1 15.7 5.6c4 .4 8.3-1 12 .9 2 1 .2 3.5-.1 4.9a8 8 0 0 0 1 6c3.7 5.3 8 2 12.7 2.4z"/>
  <path fill="#03243b" d="M233.2 682.9c-13.7-.3-41.3-26.8-44-31.3S181 638 185 631.4a3.9 3.9 0 0 1 2.5-2c1.8-.3 3.5.9 4.8 1.8l.1.1 4.7 4a37.7 37.7 0 0 0 21.3 10.3h4c3-.2 5.9-.4 8.7 1s1.5 4.3 1 5.7l-.4 1a6 6 0 0 0 .9 4.7c2 2.9 4 2.6 7 2 1.5-.2 3-.4 4.5-.3a4 4 0 0 1 3.4 2c1.1 2 0 4.7-1 6.5l-.4.9c-2.5 4.8-7.1 13.8-12.9 13.8zm-45-50.5c-.2 0-.4.2-.6.6-3 5 2 13.4 4.2 17 2.5 4 29.3 29.6 41.4 29.9 4 0 8.5-8.9 10.2-12.2l.5-.9c1.4-2.7 1-3.5 1-3.7s-.5-.3-1-.4c-1.3 0-2.6.1-3.8.4-3.1.5-6.9 1.1-10-3.3a9.5 9.5 0 0 1-1.3-7.3l.4-1.3c.3-.6.5-1.2.6-2-2.1-1-4.6-.8-7.1-.6h-4.5a41.8 41.8 0 0 1-23.2-11.1 51.1 51.1 0 0 0-4.4-3.7l-.1-.1c-.7-.6-1.5-1-2.3-1.3z"/>
  <path fill="#66a8f7" d="M237.2 676c-.4 0-1.1-.3-2.9-1.3l-2.7-1.4-2.2-.8a93.6 93.6 0 0 1-32-19c-2.7-2.4-9.3-8.7-9.7-16.9a.8.8 0 0 1 1-.7c.1 0 .2 0 .3.2a.8.8 0 0 1 .2.5c.3 7.5 6.6 13.5 9.3 15.7a92.5 92.5 0 0 0 31.5 18.8l2.1.8 3 1.5 1.8 1a.7.7 0 0 1 .6.2.8.8 0 0 1 .2 1.1c-.2.2-.3.4-.5.4z"/>
  <path fill="#fff" d="M545.5 609.9c-.6 1.9 7.8 11 8.6 15.5 1.1 5.9 4 11 5.7 11.4 1.4.4 5.1-5.9 5.9-6.8s2.4-1.8 2.7-2.9c.7-2.4-1.9-6.2-3.3-8.3-3-4.1-5-12.4-7.3-14.1-2.6-2-11.5 2.8-12.3 5.2z"/>
  <path fill="#03243b" d="M560 638.3h-.6c-2.9-.8-5.8-7.1-6.8-12.6-.3-2-2.8-5.7-4.8-8.6-3-4.2-4.2-6.1-3.7-7.7.8-2.4 5.6-5.1 8.8-6.1 2.6-.9 4.5-.8 5.8.1 1.5 1.2 2.6 3.9 4 7.3 1 2.6 2.2 5 3.6 7.3 2.1 2.9 4.4 6.6 3.6 9.5-.5 1-1.2 2-2.1 2.6l-1 .8c0 .2-.3.6-.7 1.2-2.8 4.2-4.5 6.2-6.2 6.2zm-13-28c1 1.8 2 3.5 3.2 5.1 2.4 3.5 4.9 7 5.4 9.8 1 5.3 3.2 9 4.3 10a31.8 31.8 0 0 0 4.6-6.2c.4-.4.8-.9 1.3-1.2l1.1-1.1c.2-.9 0-2.8-3-7a41.8 41.8 0 0 1-4-7.8c-1-2.4-2.2-5.4-3-6-.3-.2-1.1-.3-2.9.2a17 17 0 0 0-7 4.1z"/>
  <path fill="#03243b" d="M565.1 618.9c-1-1.3 4.1-1.6 7.5 2.5s4.5 8.6 2.6 13.3-20 25-20 25-4.3 1.2-13.8 1c-7-.1-12.4-.7-12.4-.7s-1.4-3.7-.4-4.4c3.7-3 6.7-2.3 15.3-8.6 2-1.4 5.6-9.3 10.3-21.6 1.4-3.8 4 7 5.3 6.8 4.5-1 6.5-12.3 5.6-13.4z"/>
  <path fill="#03243b" d="M543.3 662.2h-2c-7-.1-12.4-.7-12.5-.7h-1l-.3-1c-.8-2.1-1.4-4.9.1-6 1.6-1.3 3.3-2.2 5.2-3 3.6-1.4 7-3.3 10.2-5.7.7-.5 3.2-3.6 9.7-21 .6-1.4 1.5-1.7 2.1-1.7 1.9 0 2.8 2.2 4 5.2l1 2c.6-.4 1-1 1.4-1.5a19 19 0 0 0 2.5-9.2 1.9 1.9 0 0 1-.2-1.7 2.2 2.2 0 0 1 1.9-1.3c1.7-.3 5.5.5 8.3 3.8 3.9 4.8 4.9 10 2.8 14.9s-18.4 23.3-20.3 25.3l-.2.4-.4.1c-.2 0-4 1.1-12.3 1.1zm-13.2-3.6c1.9.2 6.2.5 11.3.6 4.4.2 8.7-.1 13-1 5.1-5.7 17.8-20.4 19.4-24 1.6-4 .8-7.9-2.4-11.8a7.7 7.7 0 0 0-4.6-2.8c.2 2.7-1.3 7-1.3 7-1 2.9-2.7 6.4-5.7 7-1.7.5-2.5-1.3-3.7-4l-1-2.4c-6.4 16.7-8.8 20-10.3 21.1-3.3 2.5-7 4.5-10.8 6a18 18 0 0 0-4.2 2.3c0 .7 0 1.3.3 2z"/>
  <path fill="#66a8f7" d="M545.3 651.7c-.4 0-.7-.1-1-.3-1.6-.5-3-1.3-4.3-2.4 0 0-1-1.1-1-2a1 1 0 0 1 .4-.7c.7-.5 1.7-.2 2.4 0l.4.2 1.6.5c1.3.6 2.6 1 4 1-.2 0-.4-.3-.5-.4l-.4-.2-1.3-1-2.3-1.9c-.2-.2-1.6-1.5-.8-2.5.7-.7 1.9-.4 3.6.4l.5.2c3.6 1.3 4.8 1.3 5.2 1.1l-.7-.8a28.4 28.4 0 0 0-3.7-3.1l-.2-.2c-1.1-.6-1.8-1-1.8-1.7a1 1 0 0 1 .5-.7c.5-.3 1 0 1.3.3l.2.1.5.3 1 .4c1.7.7 3.5 1 5.3 1a.8.8 0 0 1 .5 1.3.7.7 0 0 1-.5.3 16 16 0 0 1-3.4-.4l1.3 1.3c.4.5 1.8 1.8 1 2.8-1 1.3-4 .5-7-.6l-.3-.2h-.3a12 12 0 0 0-1.3-.5l2.3 1.8 1.4 1.1.3.2c.7.6 1.5 1.2 1.5 2a1 1 0 0 1-.6.9c-1.4.9-4 0-5.9-.8l-1.4-.5-.5-.1-.4-.2.2.2c1 1 2.3 1.6 3.7 2l.1.1h.1l.4-.1a.8.8 0 0 1 .8.8 1 1 0 0 1-.5.8 1 1 0 0 1-.4.2z"/>
  <path fill="#66a8f7" d="M533.6 659.3a.8.8 0 0 1-.7-.6.8.8 0 0 1 .5-.9 36 36 0 0 1 8-1 43.2 43.2 0 0 0 11.1-1.5c1.3-1 2.4-2.2 3.4-3.6l1.3-1.6c2.1-2.4 4.2-5 6.2-7.6a121.1 121.1 0 0 1 9.4-10.6.8.8 0 0 1 .5.2.8.8 0 0 1 .2.8l-.2.3c-3 3.2-6 6.6-8.7 10.2-2 2.6-4.1 5.3-6.3 7.7l-1.3 1.6a19 19 0 0 1-3.6 3.8 9 9 0 0 1-3.8 1l-1.4.2a43 43 0 0 1-6.7.7 34.8 34.8 0 0 0-7.9 1z"/>
  <g fill="#03243b">
    <path d="M625 261.2c-1 6.2-18.3 3.3-18.8-.9-.2-1.4.4-9.2 3.8-9.2 6 0 15 10.1 15 10.1z"/>
    <path d="M617.7 266.3h-.2c-4.9 0-12.3-2-12.8-5.8-.2-1.4.1-7 2.3-9.5a3.8 3.8 0 0 1 2.9-1.4c6.5 0 15.2 9.5 16.1 10.6l.5.5v.7c-.5 3.1-3.7 4.9-8.8 4.9zm-7.8-13.7s-.3 0-.6.4c-1.3 1.5-1.8 6-1.6 7.2 0 .9 4.3 3 9.8 3 2.4 0 5-.3 5.7-1.6-2.7-3-9.2-9-13.3-9zM532 385.5c-31.7 20.7-89.4-4.9-98.4-19s20.3-78 51.4-57.5 62.6 66.3 47 76.5z"/>
    <path d="M502.3 394.8c-7 0-14-.9-21-2.4-23.7-5.1-44-17-49-25-6.3-9.8 4.1-39 19.1-53.8 11.2-11 23.4-13 34.4-5.9 26.2 17.2 51.8 51.4 51.8 69 0 4.6-1.6 8-4.8 10a55 55 0 0 1-30.5 8.1zm-29.8-88.3c-7.6 0-14.1 4.5-19 9.3-15 14.7-23.7 42-18.6 50 4.8 7.5 24.9 18.8 47.1 23.6 25.5 5.6 40.8.3 49.1-5.2 2.3-1.5 3.5-4 3.5-7.5 0-16.5-25.5-50-50.5-66.5a20.9 20.9 0 0 0-11.6-3.7z"/>
    <path d="M419.4 318.2c-6.4 2-5.9 11-7 16.5-.5 2.5-.8 5-.9 7.6-.5 13.4 4.6 25.8 7.3 39 5.4 27.2 16.9 53.6 27.6 79.3a723 723 0 0 0 91.8 157.5c15.3-1.9 21.1-4.9 25.7-10.7.4-.5-21.3-59.8-28.5-80-6.4-17.8-5.8-14.3-11.1-32.5-12.2-41.3-23.7-82.8-35.5-124.1-3.5-12.1-6.4-24.2-11-35.8-1.6-3.9-3.1-36.5-6.8-39.3-10.5-7.9-26.1 11.6-37.8 8.7-4.4-1.1-9.6 12.4-13.8 13.8z"/>
    <path d="m537.6 619.7-.5-.7A735 735 0 0 1 445 461.2l-2.3-5.5c-10-24-20.3-48.7-25.4-74.2-.8-4-1.9-8.1-3-12a94 94 0 0 1-4.3-27.3c0-2.6.4-5.2.9-7.8l.6-3.7c.6-5.4 1.4-12 7.4-14 1.4-.4 3.5-3.5 5.2-6 3.1-4.5 6-8.7 9.5-7.8 4.7 1.2 10.6-2 16.3-5 7.6-4 15.5-8.3 22-3.4 2.5 1.8 3.7 10 5.6 27.3.6 5.7 1.2 11.5 1.7 12.7 3.7 9.2 6.4 18.8 9 28.2l2.1 7.7 11.7 41.1c7.7 27.2 15.7 55.4 23.8 83 3.6 12.3 4.5 14.7 6.7 20.4l4.4 12.1 8.7 24.3 13.4 37c6.8 19.2 6.8 19.2 6.1 20.1-5.1 6.6-11.8 9.4-26.6 11.2zm-105-313.9c-1.5 0-4.2 4-6 6.6-2.3 3.3-4.5 6.4-6.8 7.2-4.1 1.3-4.8 6.5-5.4 11.4-.2 1.5-.3 2.8-.6 4-.4 2.4-.7 4.9-.8 7.3-.3 9 1.9 17.5 4.3 26.4l3 12.3c5 25 15.3 49.7 25.2 73.5l2.3 5.5a733.7 733.7 0 0 0 91.1 156.5c14.4-1.9 19.5-4.8 23.4-9.5-1.4-4.6-11.8-33.4-19.6-54.7a7831.6 7831.6 0 0 1-13.1-36.4c-2.2-5.8-3.1-8.2-6.8-20.6-8.1-27.6-16-55.8-23.8-83l-11.6-41-2.2-7.8c-2.6-9.2-5.2-18.9-8.8-27.8-.7-1.6-1.1-6-2-13.5-.9-8.3-2.5-23.7-4.4-25.3-5-3.7-11.6-.1-18.7 3.7-6.2 3.3-12.6 6.7-18.5 5.3z"/>
  </g>
  <path fill="#fff" d="M549 595.9a.6.6 0 0 1-.5-.4L535 569c-28.6-56.4-53.4-105.1-64.7-173.1v-.3a.6.6 0 0 1 .4-.4.6.6 0 0 1 .7.5c11.4 67.8 36 116.4 64.7 172.7a3344.8 3344.8 0 0 1 13.5 27 .6.6 0 0 1-.3.4h-.3zM412 352.4a.6.6 0 0 1-.4-.2.6.6 0 0 1 0-.9c1.1-1 1.8-3 2.3-4.7a45.3 45.3 0 0 1 1.8-4.6c1.3-2.9 2.3-5.9 3-9l.6-3 .6-3.1.2-1.4c.3-2 .4-2.1 1-2a.6.6 0 0 1 .5.6v.2l-.3 1.4-.3 1.5-.5 3.1-.6 3a53 53 0 0 1-4.4 12.5l-.4 1.2c-.6 1.8-1.3 3.9-2.7 5.2a.6.6 0 0 1-.4.2z"/>
  <path fill="#03243b" d="M482.3 298.6a651 651 0 0 0-27.3 33c-5 6.5-9.9 13.1-15.2 19.6-16.2 19.9-32 40.3-48.8 59.6-15.6 18-29 37.4-43.5 56.3-16 20.8-91.6 133.9-99.9 147.7-1.2 2-7.6 12.9-7 15 .5 2.4 4.2 4.2 5.8 5.4l23.8 17.7c3.6 2.7 41.6-37.9 50.8-47.9 15.2-16.4 29.5-33.4 44.2-50.3C390 526 435.7 470 470.9 425.3 495.6 394 515 368 518.6 361c2-4.1 14.8-24.2 12.4-29.1-2.6-5.2-7.7-13.7-12.5-16-14-7-20.7-15.6-36.2-17.3z"/>
  <path fill="#03243b" d="M270.6 654.6a2 2 0 0 1-1.3-.5 1745.8 1745.8 0 0 0-25-18.5c-2-1.4-4.6-3-5.2-5.4-.2-.7-.7-2.8 7.2-16.1 7.9-13.1 84-127.1 100-148A718 718 0 0 0 360 448a645.1 645.1 0 0 1 29.9-38.1c11.2-13 22.2-26.7 32.8-40l16-19.7c3.4-4.1 6.7-8.5 9.9-12.7a843 843 0 0 1 19.3-24.4c13-16.2 13.5-16.1 14.6-16a53.2 53.2 0 0 1 24.7 10.3c3.9 2.6 7.9 5 12 7 5.9 3 11.5 13.6 13.1 16.8 2 4-2.4 13.1-10.2 26.6l-2.1 3.9c-4.4 8.7-32 44.2-48 64.6a4244 4244 0 0 1-115.8 141.1c-11 12.8-22.3 26-34 38.6a1095 1095 0 0 1-27.6 28.8c-16.9 16.8-21.9 19.8-24 19.8zm212.1-354.4c-3.2 3-22.6 27.4-26.4 32.3l-5.3 6.9c-3.2 4.2-6.5 8.6-10 12.8l-16 19.7c-10.6 13.2-21.6 27-32.9 40a627.3 627.3 0 0 0-29.7 38c-4.5 6-9 12.1-13.7 18.1-16 20.8-92 134.6-99.8 147.7-4.6 7.7-7 12.8-7 13.9.4 1.2 2.4 2.5 4 3.5l1.4 1 12 8.8 11.5 8.6c3-.7 17.6-13.5 49-47.4 11.8-12.6 23-25.8 34-38.6l10.2-11.7c24.5-28.2 69.9-83.8 105.6-129.3 27.6-35 44.5-57.8 47.6-64a98 98 0 0 1 2.3-4c2.9-5.1 11.7-20.6 10-23.8-2.8-5.9-7.7-13.4-11.7-15.4a123 123 0 0 1-12.3-7.3c-7-4.6-13.1-8.6-22.8-9.8z"/>
  <path fill="#fff" d="m418.6 378.1-.4-.1a.6.6 0 0 1-.2-.4.6.6 0 0 1 .1-.5l5.4-6.6a2993 2993 0 0 1 15.9-19.7l9.9-12.7 5.3-6.9a.6.6 0 0 1 .8-.1.6.6 0 0 1 .2.6v.2a384 384 0 0 1-15.3 19.6l-16 19.7-5.3 6.7-.2.2h-.2zM266.5 643.7s-.2 0-.3-.2a.6.6 0 0 1-.1-.8 874.8 874.8 0 0 1 44.2-55.3A1146.8 1146.8 0 0 0 389.4 484c9.3-13 19-26.5 28.6-39.6l3.6-5c12.6-17 25.6-34.8 38.6-52 1.7-2.2 14-16.1 14.5-16.7a.6.6 0 0 1 1 .4v.4c-.2.2-12.9 14.5-14.5 16.7-13 17.2-26 34.9-38.6 52L419 445c-9.6 13.1-19.3 26.6-28.5 39.6-14.6 20.4-29.6 41.5-45.1 61.8a1151 1151 0 0 1-34.2 41.6 871 871 0 0 0-44.4 55.5h-.3zm228.3-268.6c-1 0-2-1.9-4-7.8l-.2-1a92.2 92.2 0 0 1-5-27c-.3-2.5-.4-5-.5-7.5v-6.2a.6.6 0 0 1 .2-.5.6.6 0 0 1 .7-.2.6.6 0 0 1 .3.7v6.2a67 67 0 0 0 1 11c.8 8 1.6 15.6 4.4 23.2l.3 1c.6 2 1.4 4 2.2 5.9-.1-2.5-.5-4.9-1.2-7.2l-1-5.3c-1.2-10-1.2-19.3-1.2-29.2v-.6a.6.6 0 1 1 1.2 0v.6c0 9.9 0 19.2 1.2 29l1 5.2a36 36 0 0 1 1.2 9.5.7.7 0 0 1-.6.2z"/>
  <path fill="#66a8f7" d="M219.5 653.3h-.2c-1-.1-1.2-1.5-1.2-2.4v-2.2l-1.6 2c-.4.5-1.1 1.5-2 1-1-.7-.9-2.7-.1-6l-.5.7-1.7 2.6c-.5.6-1 1.3-1.7 1.4a1.1 1.1 0 0 1-.9-.3c-1.3-1.3-.5-3.6.3-5.7l.6-1.8c-.7.7-1.3 1.5-1.8 2.4l-.5 3v.2a.7.7 0 0 1-.8.6.8.8 0 0 1-.7-.8v-.2c0-1.2.3-2.4.7-3.5.5-1 1.3-1.9 2-2.7l.6-.6a1.7 1.7 0 0 1 1.5-.5 1 1 0 0 1 .7.7c0 1.3-.3 2.6-.9 3.8-.5 1.3-1 3-.8 3.7l.5-.6a43 43 0 0 0 2.8-4.3l.1-.2c.6-1 1-1.7 1.6-1.7a.8.8 0 0 1 .6.3c.2.2.4.4 0 2.7l-.2 1a19 19 0 0 0-.6 4l.1-.2c1.3-1.5 2.4-3 3.2-4.8l.1-.1c0-.8.2-1.3.7-1.6a1 1 0 0 1 1 .3c.5.4.3.9-.2 1.7v.8l-.1.3c-.4 1.4-.5 2.9-.4 4.3v1.2c.7-.5 1.3-2.3 1.6-3.4.2-.9.6-1.7 1-2.5a.8.8 0 0 1 1.2 1c-.4.6-.6 1.2-.8 1.9-.6 2-1.4 4.5-3.2 4.5zm247-451.5c1 4.1 7.6 7.5 11.3 10 1 .6 4.5 2.8 4.5 4.2 0 2.1-13 18-18 23a381.5 381.5 0 0 0-41.5 51.4c-19 26.6-13.2 49.2-11.4 51.2 0 0 .2-2.6 2.8-7.2 9.5-15.3 50.7-18 80-1.7s44.8 44.8 37.8 52.8c0 0 17.4-10.3 33.3-56.7 17.1-50 45.5-68.7 45.5-68.7s4.2-12.1 14.2 1.1c2.5-17.3 2.9-51.3-16.8-73s-42.6-10.7-63.8-10.7c-6 0-8.4-4-12-8.3-3.4-4-10.5-8.5-15.7-9.5-16.5-3-35.7 17-43 30.4-2 3.5-8.2 7.7-7.2 11.7z"/>
  <path fill="#03243b" d="M532 387a1.5 1.5 0 0 1-1.1-2.5c1.2-1.4 1.6-3.8 1-6.8-2-11.9-16.1-31.2-38.4-43.7-29-16.2-69.2-13-78 1.2-1.2 2-2.1 4.2-2.6 6.5a1.5 1.5 0 0 1-2.6.9c-2.5-2.8-7.8-26.3 11.3-53a364 364 0 0 1 41.7-51.7c5-5 16.4-19.1 17.5-21.9-.3-.3-1-1.2-3.6-2.9l-.3-.1-2-1.4c-4-2.4-8.9-5.4-9.8-9.4-.9-3.5 2-6.6 4.4-9.4 1-1 2-2.2 2.8-3.5 8-14.4 27.8-34.2 44.7-31 6 1 13.2 6 16.6 10l1.5 1.7c2.8 3.5 4.8 6 9.3 6a129 129 0 0 0 16-1.4c16.4-2 33.5-4.2 48.9 12.6a73.1 73.1 0 0 1 17 39 124 124 0 0 1 .2 35.3 1.5 1.5 0 0 1-2 1.2c-.3-.1-.6-.3-.7-.5-3-4-5.7-5.9-7.8-5.6s-3.5 3-3.9 4c0 .3-.3.6-.5.8-.3.2-28.2 19.1-44.9 68-8.3 24-17 38.4-22.8 46.1-6.5 8.5-11 11.2-11.2 11.4l-.7.1zm-81.6-67c15.6 0 31 4 44.6 11.4 23 13 37.8 33.2 40 45.7l.2 3.7c6-5.8 17.7-20.5 28.7-52.5 16.2-47.3 42-66.7 45.6-69.2.6-1.4 2.5-5 6-5.5 2.7-.4 5.5 1 8.4 4 4.8-40.8-11.6-62.6-16.9-68.4-14.2-15.7-29.8-13.7-46.3-11.6-5.4.8-10.8 1.2-16.3 1.4-5.9 0-8.7-3.4-11.7-7l-1.4-1.8a32 32 0 0 0-14.8-9c-8.7-1.6-17.7 3.9-23.8 8.7a76.9 76.9 0 0 0-17.7 20.9c-1 1.5-2 2.8-3.2 4-2 2.3-4.2 4.8-3.8 6.6.7 2.9 5.2 5.6 8.5 7.7l2.2 1.4.2.1c3 2 5 3.7 5 5.4 0 3.3-15.3 21-18.4 24a366 366 0 0 0-41.5 51.3c-14.5 20.4-14.1 38-12.7 45.5.4-1 1-2 1.6-3.1 5.3-8.6 20.1-13.6 37.4-13.6z"/>
  <path fill="#fff" d="M536.6 170c-2 2-3.8 4-5.5 6.3-4.5 6.1-6.6 17.3 3.8 19 6.5 1 15.3-4.2 19.4-8.9 2.8-3 4.7-6.9 5.5-11 .3-1.5 3.6-7.6 2.2-8.9-4.1-3.7-14.4 1-19.4 1.5-2 .2-4.5.4-6 2z"/>
  <path fill="#03243b" d="M536.8 197c-.7 0-1.4 0-2.1-.2-5-.8-7.1-3.6-8-5.7-2-5 .2-11.6 3.2-15.7 1.7-2.3 3.5-4.4 5.6-6.5 1.8-1.9 4.6-2.1 6.7-2.4h.2a30 30 0 0 0 5.2-1.1c5.5-1.5 11.8-3.1 15.4 0 1.6 1.5.6 4.5-1 8.5l-.7 2c-1 4.3-3 8.3-5.9 11.6-3.5 4-11.5 9.5-18.6 9.5zm20.6-30.4c-3.1.2-6.1.8-9 1.7a40 40 0 0 1-5.7 1.2h-.2c-1.9.2-3.8.4-4.9 1.5-2 2-3.7 4-5.3 6.1-2.6 3.6-4.4 9-2.8 12.8.8 2.1 2.7 3.4 5.6 4 6.2 1 14.4-4.3 18-8.4a22 22 0 0 0 5.2-10.4l.8-2.4c.6-1.3 1.8-4.2 1.7-5.2-1-.7-2.2-1-3.4-1z"/>
  <path fill="#dd7a64" d="M540.5 182.1c-1.5 0-3-.2-4.5-.8a8.3 8.3 0 0 1-3.5-4v-.4a.6.6 0 0 1 1-.1 7.2 7.2 0 0 0 3 3.4c2.9 1.3 9.7 1 18-3.2a.6.6 0 0 1 .6.1.6.6 0 0 1 .3.4.6.6 0 0 1-.4.6c-5.8 2.9-10.9 4-14.5 4z"/>
  <path fill="#03243b" d="M422.8 292a1.5 1.5 0 0 1-1.4-.9 1.5 1.5 0 0 1 .2-1.6 368.5 368.5 0 0 1 41.7-51.6c5-5 16.1-19.8 17.7-22.6l.2-.4c2-3.5 7-12.6 8.8-23.3a1.5 1.5 0 0 1 3-.1v.6a77.2 77.2 0 0 1-9.1 24.2l-.3.5a201.6 201.6 0 0 1-18.2 23.2 373.6 373.6 0 0 0-42 51.8l-.6.1zM625 262.7a1.5 1.5 0 0 1-1.3-.8 30 30 0 0 0-4.7-4.8 22.9 22.9 0 0 0-6-3.6c-8.7-3-20.6-1-22.7.9a1.5 1.5 0 0 1-2.4-.5l-.1-.9a152 152 0 0 0 1-29.4 1.5 1.5 0 0 1 3-.2c.6 9 .4 18.2-.7 27.2a39 39 0 0 1 22.9 0 25 25 0 0 1 7 4.2c.4.3 4.2 3.5 5.4 5.7a1.5 1.5 0 0 1 .1 1.1 1.5 1.5 0 0 1-.7 1l-.8.1z"/>
  <path fill="#03243b" d="M505.7 263.3 371 284.5a10.3 10.3 0 0 1-8.8-2.8l-6.8-6.6-22.6-200.3a4.5 4.5 0 0 1 3.8-5.2l135.3-21.3a4.5 4.5 0 0 1 5.1 3.8l32.4 206a4.5 4.5 0 0 1-3.7 5.2z"/>
  <path fill="#fff" d="m502.9 258.8-131 20.6a10.8 10.8 0 0 1-12.4-9L329.2 78.3c-.2-1.4 2-12.4 3.3-12.6L464 45l9 8 32 203a2.5 2.5 0 0 1-2.1 2.8z"/>
  <path fill="#fff" d="M370.1 279.7a11 11 0 0 1-10.8-9.3L329.1 78.3c.1-2.3.5-4.6 1-6.8.7-2.6 1.6-5.8 2.4-6L464.1 45l9 8.1 32 202.9a2.6 2.6 0 0 1-2.2 3l-131 20.7H370zM464 45.2 332.6 65.9a35 35 0 0 0-3.2 12.4l30.2 192.1a10.6 10.6 0 0 0 12.2 8.9l131-20.7a2.3 2.3 0 0 0 2-2.7L473 53.3z"/>
  <path fill="#66a8f7" d="M461.1 40.5 325.8 61.8a4.5 4.5 0 0 0-3.7 5.2l32.4 206a4.5 4.5 0 0 0 5.1 3.8L495 255.5a4.5 4.5 0 0 0 3.8-5.1L466.3 44.3a4.5 4.5 0 0 0-5.2-3.8z"/>
  <path fill="#03243b" d="M359 278.3a6 6 0 0 1-6-5l-32.4-206a6 6 0 0 1 5-7L461 39a6 6 0 0 1 6.9 5l32.4 206a6 6 0 0 1-5 7L360 278.3a6 6 0 0 1-.9 0zM461.8 42h-.5L326.1 63.3a3 3 0 0 0-2.5 3.4l32.4 206a3 3 0 0 0 3.4 2.6L494.7 254l.2 1.5-.2-1.5a3 3 0 0 0 2.5-3.4L464.8 44.5a3 3 0 0 0-3-2.5z"/>
  <path fill="#66a8f7" d="M361.4 273a1.5 1.5 0 0 1-1.5-1.3L327.6 66.5a1.5 1.5 0 0 1 3-.5L363 271.3c0 .4 0 .8-.3 1.1s-.5.5-1 .6h-.2zM349.6 82.1a1.5 1.5 0 0 1-.2-3l88.5-14a1.5 1.5 0 0 1 .5 3l-88.5 14zm2.2 18.7a1.5 1.5 0 0 1-.2-3l48.8-5.3a1.5 1.5 0 1 1 .4 3l-48.8 5.3z"/>
  <path fill="#03243b" d="m492.7 224-122 60.8a10.3 10.3 0 0 1-9.2 0l-8.5-4.3-81.8-184.3a4.5 4.5 0 0 1 2-6l122.6-61a4.5 4.5 0 0 1 6 2l93 186.8a4.5 4.5 0 0 1-2 6z"/>
  <path fill="#fff" d="m488.7 220.6-118.8 59a10.8 10.8 0 0 1-14.5-4.8l-86.6-174.2c-.6-1.2-1.8-12.3-.6-13l119.2-59.2 11 5 91.4 183.9a2.5 2.5 0 0 1-.3 2.7l-.8.6z"/>
  <path fill="#fff" d="M365 281a11 11 0 0 1-9.7-6.1l-86.6-174.2c-.6-1.2-2-12.5-.6-13.2l119.3-59.3 11.1 5.1L490 217.2a2.6 2.6 0 0 1-1.2 3.5L370 279.8a10 10 0 0 1-4.8 1.1zm22.4-252.4L268.2 87.8c-.3.2-.6 1.9-.2 6.1 0 2.2.4 4.5 1 6.7l86.5 174.1a10.6 10.6 0 0 0 14.3 4.8l118.8-59a2.3 2.3 0 0 0 1-3.2L398.4 33.5z"/>
  <path fill="#66a8f7" d="M383.2 25 260.6 86a4.5 4.5 0 0 0-2 6l92.9 186.7a4.5 4.5 0 0 0 6 2l122.6-61a4.5 4.5 0 0 0 2-6L389.4 27a4.5 4.5 0 0 0-6-2z"/>
  <path fill="#03243b" d="M355.5 282.8a6 6 0 0 1-5.4-3.4L257.2 92.8a6 6 0 0 1 2.7-8.1l122.7-61a6 6 0 0 1 8 2.7l92.9 186.8a6 6 0 0 1-2.7 8l-122.6 61a6 6 0 0 1-2.7.7zM385.3 26a3 3 0 0 0-1.4.3l-122.6 61a3 3 0 0 0-1.4 4l92.9 186.8a3 3 0 0 0 4 1.3l122.6-61a3 3 0 0 0 1.5-1.7 3 3 0 0 0-.1-2.3L387.9 27.7a3 3 0 0 0-1.7-1.5 3 3 0 0 0-1-.2z"/>
  <path fill="#66a8f7" d="M357.6 276.8a1.5 1.5 0 0 1-1.4-.9L263.7 90a1.5 1.5 0 0 1 .2-1.7 1.5 1.5 0 0 1 2.5.3l92.6 186a1.5 1.5 0 0 1-.7 2l-.6.2zM289 98.2a1.5 1.5 0 0 1-1.4-.8 1.5 1.5 0 0 1 .7-2l80.3-39.9a1.5 1.5 0 0 1 1.3 2.7l-80.2 40h-.7zm7.6 17.2a1.5 1.5 0 0 1-.6-2.9l45-19.7a1.5 1.5 0 0 1 1.2 2.8l-45 19.7-.6.1z"/>
  <path fill="#03243b" d="M503 112.5 517.4 268l-12.9 10.8L266 288a5.2 5.2 0 0 1-5.8-4.5L246 133a5 5 0 0 1 4.9-5.4L497 108a5.2 5.2 0 0 1 5.8 4.5z"/>
  <path fill="#fff" d="M497.4 115.3 511 261c.6 6.5 6.5 11.4-.5 12l-229.7 18.3c-1.6.1-14.5-3.1-14.6-4.6l-13.7-146.3-.5-5.3a3.1 3.1 0 0 1 3-3.3l239.2-19a2.9 2.9 0 0 1 3.2 2.4z"/>
  <path fill="#03243b" d="M503.9 122.8 518 273.4a5 5 0 0 1-4.9 5.4l-246.3 19.6a5.3 5.3 0 0 1-5.8-4.6l-14-150.4a5 5 0 0 1 4.8-5.4l246.3-19.6a5.3 5.3 0 0 1 5.8 4.5z"/>
  <path fill="#03243b" d="M266.4 299.8a6.7 6.7 0 0 1-6.8-5.9l-14.2-150.5a6.2 6.2 0 0 1 1.5-4.6 7 7 0 0 1 4.8-2.4L498 116.8a6.8 6.8 0 0 1 7.4 6l14.1 150.4a6.3 6.3 0 0 1-1.4 4.6 7 7 0 0 1-4.8 2.4L267 299.8zm232.2-180h-.4L252 139.4c-1 .1-2 .6-2.7 1.4a3.2 3.2 0 0 0-.7 2.3l14 150.5a3.7 3.7 0 0 0 4.2 3.2L513 277.2a4 4 0 0 0 2.7-1.4 3.2 3.2 0 0 0 .8-2.3L502.4 123a3.7 3.7 0 0 0-3.8-3.2z"/>
  <path fill="#66a8f7" d="M266.6 292a1.5 1.5 0 0 1-.1-3l245.3-19.5a1.5 1.5 0 0 1 1.5.8l.2.6a1.5 1.5 0 0 1-1.4 1.6L266.7 292zm58.8-24.6a1.5 1.5 0 0 1-1.4-1.4l-6-63.2a1.5 1.5 0 0 1 1.3-1.7 1.5 1.5 0 0 1 1.7 1.5l6 63.1a1.5 1.5 0 0 1-1.4 1.6zm-40.2 3.2a1.5 1.5 0 0 1-1.5-1.4l-9.2-98.5a1.5 1.5 0 0 1 .3-1c.3-.4.6-.6 1-.6l15.4-1.2a1.5 1.5 0 0 1 1.6 1.3l9.3 98.5a1.5 1.5 0 0 1-1.4 1.6l-15.4 1.3zm-7.6-98.6 9 95.4 12.3-1L290 171z"/>
  <path fill="#03243b" d="m596.5 216.8-82 137.7a11.4 11.4 0 0 1-8.6 5.5l-10.5 1.2L316.2 243a5 5 0 0 1-1.7-6.8l82.4-138.4a5 5 0 0 1 6.9-1.7l191 113.8a5 5 0 0 1 1.7 6.9z"/>
  <path fill="#fff" d="m382.6 101.5-82.4 138.3a5 5 0 0 0 1.7 6.8l191 113.9a5 5 0 0 0 6.9-1.8l82.4-138.3a5 5 0 0 0-1.7-6.9l-191-113.8a5 5 0 0 0-6.9 1.8z"/>
  <use xlink:href="#a"/>
  <path fill="#fff" d="m590.7 216-80 134.3a12 12 0 0 1-16.4 4.1L316.7 248.5c-1.4-.7-9.2-10.4-8.4-11.7l80.2-134.6 13.3-2 188 112a2.7 2.7 0 0 1 .9 3.8z"/>
  <path fill="#dce2ea" d="m337.3 177.4 45.3-76a5 5 0 0 1 6.9-1.7l191 113.8c-77.3-46-161.5-113.7-243.2-36z"/>
  <path fill="#66a8f7" d="m490 351.2-.7-.2-178.8-106.6a1.5 1.5 0 0 1-.5-2 1.5 1.5 0 0 1 1-.7 1.5 1.5 0 0 1 1.1.1l178.7 106.5a1.5 1.5 0 0 1-.7 2.9zm12.7-43.4c-.2 0-.5 0-.7-.2a1.5 1.5 0 0 1-.6-2l38.2-64a1.5 1.5 0 0 1 2.5-.2 1.5 1.5 0 0 1 0 1.7L504 307a1.5 1.5 0 0 1-1.3.7zm-20.9.6-.8-.2-12.4-7.4a1.5 1.5 0 0 1-.6-2.1l51-85.4a1.5 1.5 0 0 1 1.5-.8l.6.2 12.4 7.4a1.5 1.5 0 0 1 .5 2.1l-50.9 85.4a1.5 1.5 0 0 1-1.3.8zm-10.4-9.5 9.8 5.9 49.4-82.8-9.8-5.8zM425 257.1a42 42 0 1 1 0-84.1 42 42 0 0 1 0 84.1zm0-80.9a39.1 39.1 0 0 0-38.9 41 39 39 0 1 0 39-41z"/>
  <use xlink:href="#a"/>
  <path fill="#fff" d="M560 125.6c-4.6-1.1-9.8 1-13.6 3.3-3.4 2-9.7 3.4-11.5 10.6-2.9 11.6-5.6 10-6.6 16-.6 3.8 2 21.6 8 24.2s12.8 2 25.2-8c4.8-3.8 9-8.5 12.5-13.6 3-4.5 4-13 2.3-18.3-1.3-3.9-5.2-7-8.3-9.2s-4.3-4.1-8-5z"/>
  <path fill="#03243b" d="M542.4 182.5c-2.3 0-4.5-.5-6.6-1.4-7.4-3-9.6-22.3-9-25.8.3-2.2 1.1-4.2 2.4-6 1.2-1.7 2.7-4 4.2-10.1 1.5-6.4 6.4-8.7 9.9-10.4a27 27 0 0 0 2.3-1.2c3.7-2.3 9.4-4.8 14.7-3.5 2.4.6 4.7 1.8 6.6 3.6l2 1.7c3.7 2.7 7.5 5.8 8.8 9.9 2 5.8.8 14.8-2.4 19.6-3.6 5.3-7.9 10-12.9 14-8.8 7.1-15 9.6-20 9.6zm15-55.7c-4 0-8 2-10.2 3.4l-2.6 1.3c-3.3 1.6-7 3.4-8.3 8.4-1.6 6.7-3.2 9.1-4.5 11.1-1 1.4-1.8 3-2 4.8-.6 3.8 2.1 20.4 7.1 22.5 5.5 2.2 11.7 1.8 23.7-7.7a60 60 0 0 0 12.2-13.4c2.7-4 3.7-12.1 2-17-1-3.2-4.3-6-7.7-8.4L565 130a11.8 11.8 0 0 0-5.4-3l-2.3-.2z"/>
  <path fill="#03243b" d="M566 143.5c-1-1.4-.2-.3-3.4.5a27.4 27.4 0 0 1-24.9-10.9c-7-10.3-7.1-23.1 1-32.3 2.8-3.2 6.7-7 10.8-8a20.2 20.2 0 0 1 4.8-.5c.4 1.2-2.4 4.1-1.5 5.5.3.6 3.8-1.4 4-.4.2 1.3-2.4 5.3-1 6.7.1.1 2.8-1.5 3-1.6 2.3-1.3 6.1-3.6 8.5-1.5a27.5 27.5 0 0 1 8.8 22.7c0 .3-.2 2 0 2.2.7.5 7.4-1.3 11.3 4.4 3.4 5 2.2 13.2.1 19a49 49 0 0 1-16.5 20.3c-2.6 2-9.7 2.7-10 2.3s7.3-8.2 7.6-12c.3-4-3.8-3.3-5.7-1.5-.4.4-1.3 1.3-1.5.4-.7-2.7 1.6-4.6 3-6.5 2.4-3.4 3.7-5.5 1.5-8.8z"/>
  <path fill="#03243b" d="M561.7 173.5h-.7a1.6 1.6 0 0 1-1.2-.8c-.7-1-.1-1.7 2-4.3 1.8-2.3 5.2-6.6 5.3-8.6 0-.3 0-1-.3-1.3a3.2 3.2 0 0 0-2.8 1c-.6.5-1.5 1.4-2.7 1.1a2 2 0 0 1-1.4-1.4c-.7-2.9 1-5 2.4-6.6l.9-1.2c2.3-3.3 3-4.6 1.7-6.7-.6.3-1.3.6-2 .7a28.8 28.8 0 0 1-26.5-11.5c-7.6-11.3-7.2-24.7 1.2-34.1 4.2-4.8 8-7.5 11.5-8.4l3.6-.6c1.4 0 2.7-.2 3 1.1.4 1-.2 2.2-.9 3.4l-.3.6a3.5 3.5 0 0 1 2.8 0 1.8 1.8 0 0 1 1 1.2c0 1.1-.3 2.3-.8 3.3l-.4 1.3 1-.5c2.4-1.5 7-4.2 10.2-1.3a29 29 0 0 1 9.2 23v1.6c2.4 0 7.7 0 11 5 4.7 6.8 1.5 17.3.4 20.4-3.3 9-11 16.4-17 21a21.4 21.4 0 0 1-10.2 2.7zm4.6-18c.7 0 1.3 0 1.8.3.9.4 2.3 1.5 2 4.3s-3 6.3-6 10.2c2.1-.4 4.8-1 6-2 5.6-4.2 13-11.2 16-19.6 2-5.5 3-13.1 0-17.6-2.6-3.7-6.6-3.7-8.7-3.6-.8.1-1.5 0-2.2-.4-.9-.6-.8-1.7-.7-3.2v-1c0-2 0-4.1-.3-6.2-1-5.6-3.8-10.7-8-14.6-1.5-1.4-4.8.6-6.6 1.7-3 1.8-4.1 2.2-5 1.3-1.4-1.5-.6-3.9 0-5.8l.2-.3c-1.2.4-2.6.8-3.4-.4-1-1.5 0-3.3.7-4.7-.8 0-1.5.2-2.3.4-2.9.7-6.3 3.2-10 7.4-7.4 8.4-7.8 20.4-.9 30.5a26 26 0 0 0 18.8 10.4c1.5.2 3 .1 4.5-.2.7-.1 1.3-.4 1.9-.7l.7-.4h.8a2.3 2.3 0 0 1 1.5 1.2l-1.3 1 1.3-.9c2.8 4.4.7 7.4-1.6 10.5l-1 1.4-1.3 1.7c1-.5 2-.8 3.1-.8z"/>
  <path fill="#fff" d="M567.4 139.2h-.1a.6.6 0 0 1-.4-.7c1.1-3 2.8-6 5-8.4l1.6-2a.6.6 0 0 1 .4-.2.6.6 0 0 1 .5.1.6.6 0 0 1 .2.4.6.6 0 0 1 0 .5l-1.7 2c-2 2.5-3.8 4.8-4.9 8a.6.6 0 0 1-.6.3zM402.7 318.9c-16.3 0-28.8-10.7-36.8-18.7-3.8-4.1-8-7.8-12.6-11-2.3-1.6-3.8-2.6-3-4.3a2.8 2.8 0 0 1 2.8-1.6c1.2 0 2.4.3 3.6.7l2.6.6-.6-1.2v-.2l-1.4-2.5c-1-1.8-1.9-3.8-2.7-5.7-1.7-4.2-1-6.3-.4-7.1a2.2 2.2 0 0 1 1.8-1 1.9 1.9 0 0 1 1.5.7 28 28 0 0 1 2.2 3.9l.2.3c-.8-3.6-1-5.6.2-6.6.3-.2.7-.4 1.2-.4 1.7 0 2.3 2 3.3 5l.5 1.4c-.1-2.2.1-4.4 1.4-5a2 2 0 0 1 1-.3c2 0 2.7 2.2 3.5 5.4a1.9 1.9 0 0 1 1.8-1.8h.2c1.9 0 2.6 2.2 4.3 7.3 2 6.3 5.2 16 10.9 20.3s18.7 12.6 22 14.6l1 .6-.3 1.2-1 3.8-.3 1-1 .2c-2 .3-4 .5-6 .5z"/>
  <path fill="#03243b" d="M361.3 266.3c.8 0 1.7 3.7 2.8 6.6 2 5.3 3.5 5 3.7 5.2l-.6-2.8c-.4-1-1.2-7.2 0-7.8l.4-.1c.6 0 1.1 1 2 4.5 1.7 6.3 3.9 8.3 3.9 8.3h.1c1.6 0-.9-7-1-8.4 0-.2-.2-.8.4-.8 2.2 0 4.8 20 14.2 27.3a309 309 0 0 0 22.3 14.7c-.4 1.1-1 3.9-1 3.9-2 .3-4 .4-5.9.4-16.4 0-28.8-11.2-35.7-18.2-9.7-10.5-15.9-12.2-15.2-13.6.1-.3.3-.5.6-.6l.8-.1c1.8 0 4.6 1.3 6.4 1.3a1.5 1.5 0 0 0 1.4-.7c.4-.5-.7-2.5-1-3-1.3-2.6-2.8-5.2-4-8-1.7-4.3-.6-6 0-6a.4.4 0 0 1 .3 0c1.3 1.7 4.4 9.2 5.7 9.2h.1c1.2-.5-2.4-10.2-1-11.3h.2zm0-3c-.8 0-1.6.2-2.2.7-.6.5-1 1.2-1.2 2a3.4 3.4 0 0 0-3.6-.2c-.5.3-1 .7-1.3 1.2-1 1.3-1.6 3.9.2 8.5.8 2 1.8 4 2.8 5.9l.5 1a12 12 0 0 0-3.4-.7 4.3 4.3 0 0 0-4.2 2.5c-1.2 2.9 1.3 4.7 3.5 6.2 4.6 3.1 8.7 6.7 12.4 10.8 8.1 8.2 21 19.1 37.8 19.1a39 39 0 0 0 6.3-.5l2-.3.4-2 1-3.7.7-2.3-2-1.2a279.3 279.3 0 0 1-22-14.5c-5.3-4-8.3-13.4-10.4-19.6-1.8-5.5-2.7-8.3-5.7-8.3h-.2c-.4 0-.7.1-1 .3-.8-2.2-2-4-4.2-4-.6 0-1.2.2-1.7.5-.5.2-.8.6-1.1 1-.8-1.5-1.8-2.5-3.5-2.5z"/>
  <path fill="#fff" d="M538.3 350.2c-12 0-23.5-3-32.4-8.4a40.1 40.1 0 0 1-18.6-25c-.1-.5-3.3-10.8-.1-14.6a1.8 1.8 0 0 1 1.3-.7 2 2 0 0 1 1.9 1.5l.3 1v-3.5c.2-1.5.4-4.2 2.5-4.4h.1c.4 0 .8.2 1.2.4s.6.5.8 1l.1-.8.1-.3c.3-1.3 1-4 3-4h.4c1 .2 1.8 1 2.2 2.3.7-1.3 1.6-2.3 2.8-2.3.5 0 1.1.3 1.5.6 1.2 1 1 2.7.9 4.5v.4a35 35 0 0 0 .2 5.6l.3 3.1v1.6c.8-.5 1.4-1.1 2-1.8 1.5-1.5 2.9-2.9 4.5-2.9a3 3 0 0 1 1.6.5c2.4 1.8 1 5.3-.2 8.4-.6 1.3-1 2.6-1.1 4 .8 6 6.2 9.7 16 10.9 1.7.2 3.3.2 5 .2 11 0 22.2-3.8 28.5-9.8 9.8-9.4 17.6-28.8 22.5-42.7 1-2.7 2.7-9.2 4-14.5 1.4-5.4 2-7.7 2.3-8.4l.2-.4.3-.2c1.5-1.2 4-1.7 7.6-1.7 5.3 0 12 1.3 14.1 2.2a24 24 0 0 1 6.9 4.9l.6.6-.3 1s-4.9 15-8 23.4a66 66 0 0 1-4.9 10 57 57 0 0 0-5.1 11c0 .5 0 1 .2 1.6a5.3 5.3 0 0 1-.6 5c-1 1.3-2.6 1.6-3.8 1.8l-1 .2a56.3 56.3 0 0 0-3.4 5.8c-1.4 2.7-3 5.3-4.9 7.7-3.5 4-7.4 7.8-11.5 11.2l-1 .9a59.7 59.7 0 0 1-39 13.1z"/>
  <path fill="#03243b" d="M600 251.3c4.6 0 9.2.7 13.5 2.1 2.4 1.2 4.5 2.7 6.4 4.5 0 0-4.9 14.9-8 23.4-2.6 7.2-8 14-10 21-.7 2 1.5 4-.2 6.3-1 1.4-4 1-4.7 1.8-3 4.2-5 9.4-8.4 13.6-3.5 4.3-8.1 8.2-12.3 11.9a58.5 58.5 0 0 1-38 12.8 61.6 61.6 0 0 1-31.7-8.2 38.9 38.9 0 0 1-17.9-24.3c-.9-2.8-2.5-10.5-.4-13v-.2h.2c.2 0 .4.5.5.6.6 1.3 1.8 7.9 3 7.9a.5.5 0 0 0 .4-.2s-.3-9.3-.1-10.4c0-.7.2-3.3 1-3.3 1.3 0 2 5.4 2.1 6.4l.9 2.7c.1-.2.2-8.1.6-9.7.2-.7.6-3.1 1.7-3.1h.1c1.7.2 1.9 8.2 2.3 9.6v.2-3c0-.8 1.2-6.8 2.9-6.8l.6.3c.7.5.3 2.8.2 3.5-.2 3 .4 6 .5 9 0 .5 0 2.8.6 3 .2.2.4.2.6.2 2 0 4.9-4.9 6.9-4.9.2 0 .4 0 .6.2 2.5 1.9-2.2 8.5-1.9 11.3 1.2 8.6 10.1 11.4 17.4 12.2l5.1.3a45 45 0 0 0 29.6-10.2c10.3-9.8 18.2-30.1 23-43.3 1.7-5 5.5-21.4 6.2-22.8 1.3-1 3.8-1.4 6.7-1.4zm0-3c-4 0-6.8.6-8.6 2l-.5.5-.4.6a86 86 0 0 0-2.4 8.7 193 193 0 0 1-4 14.4c-4.9 13.7-12.5 33-22.1 42.1a41.8 41.8 0 0 1-32.2 9.1c-9-1-14-4.3-14.8-9.5a17 17 0 0 1 1-3.2c1.3-3.3 3-7.7-.4-10.2a4 4 0 0 0-2.4-.8c-2 0-3.6 1.4-5.1 3l-.2-1.7a29 29 0 0 1-.2-5.3v-.3c.2-1.7.4-4.3-1.4-5.8a4 4 0 0 0-5.2 0 3.6 3.6 0 0 0-2.6-1c-2.6 0-3.7 2.2-4.2 3.8l-1-.1h-.2c-3.3.2-3.7 3.8-3.9 5.5a3.3 3.3 0 0 0-2.2.2c-.5.2-.8.5-1.1 1-3.5 4.2-.8 14-.2 15.9a41.5 41.5 0 0 0 19.3 25.9c9.2 5.6 21 8.6 33.2 8.6 15.5 0 30.1-4.9 40-13.5l1-.8c4.2-3.5 8.2-7.3 11.8-11.5a51 51 0 0 0 5-7.9l3-5.2h.2c1.4-.2 3.6-.5 4.9-2.4a6.9 6.9 0 0 0 .8-6.3l-.2-.9c1.3-3.6 3-7.2 5-10.5a71 71 0 0 0 5-10.3c3-8.5 8-23.3 8-23.5l.6-1.7-1.3-1.3a26.3 26.3 0 0 0-7.4-5.2c-2.3-1-9-2.4-14.7-2.4z"/>
</svg>