<svg width="800" height="800" viewBox="0 0 800 800" fill="none" xmlns="http://www.w3.org/2000/svg">
<path d="M486 625C433.5 620.567 380.89 617.843 328.17 616.83C320.49 616.68 310.91 617.83 308.26 625.01C306.65 629.4 308.48 634.39 307.34 638.92C305.28 647.07 295.26 649.86 286.89 650.72C224.61 657.07 158.83 636.5 100.55 659.35C94.8899 661.57 88.7599 664.91 87.2899 670.8C84.9099 680.44 96.1899 687.48 105.65 690.5C170.31 711.19 239.91 705.97 307.78 704.43C369.499 703.035 431.25 704.858 492.78 709.89C498.36 710.35 505.5 709.89 507.44 704.66C510 697.74 500.49 692.34 498.8 685.16C497.37 679.16 502.15 673.01 507.93 670.74C513.71 668.47 520.15 669.06 526.33 669.66C569.55 673.91 613.02 677.47 656.33 674.79C677.33 673.5 699.71 670.02 714.83 655.46C712.05 649.46 704.21 648.09 697.58 647.56C623.68 641.65 558.19 630.77 484.3 624.86L486 625Z" fill="#03243B"/>
<path d="M596.9 245.1C597.009 245.084 597.109 245.029 597.181 244.945C597.253 244.862 597.293 244.755 597.293 244.645C597.293 244.535 597.253 244.428 597.181 244.345C597.109 244.261 597.009 244.206 596.9 244.19C596.791 244.206 596.691 244.261 596.619 244.345C596.547 244.428 596.508 244.535 596.508 244.645C596.508 244.755 596.547 244.862 596.619 244.945C596.691 245.029 596.791 245.084 596.9 245.1Z" fill="#03243B"/>
<path d="M476.7 201.41C476.7 201.41 466.08 232.09 462.47 239.41C449.33 266.1 443.88 278.89 419.83 290.85C404.36 298.54 402.78 299.24 390.1 292.44C379.9 287 375 270.82 373 271C372.44 271.05 372.65 271.65 372.65 271.77C372.77 273.3 375.36 280.65 373.5 280.18C373.5 280.18 371.35 278.18 369.7 271.9C368.62 267.83 368.03 267.08 367.25 267.47C366.07 268.06 366.82 274.35 367.2 275.31C367.472 276.206 367.673 277.122 367.8 278.05C367.57 277.95 366.07 278.16 364.11 272.88C362.93 269.71 362.01 265.6 361.11 266.34C359.75 267.44 363.33 277.08 362.11 277.62C360.89 278.16 357.69 270.2 356.35 268.5C355.81 267.81 354.02 269.33 356.02 274.4C357.11 277.2 358.66 279.82 360.02 282.47C360.24 282.91 361.36 284.9 361.02 285.47C359.63 287.65 352.84 283.1 351.76 285.47C351.12 286.87 357.33 288.59 367.03 299.14C374.72 306.85 387.68 316.01 401.62 316.92C419.9 318.11 452.45 307.92 482.84 255.01C490.58 241.45 502.46 207.48 476.7 201.41Z" fill="white"/>
<path d="M404.34 318.54C403.34 318.54 402.34 318.54 401.46 318.45C384.19 317.32 369.88 304.22 365.9 300.23C362.145 296.082 357.916 292.39 353.3 289.23C351.11 287.7 349.54 286.59 350.3 284.87C351.39 282.48 354.3 283.31 356.68 283.97C357.532 284.238 358.405 284.439 359.29 284.57C359.17 284.3 358.99 283.92 358.72 283.41L358.61 283.18C358.2 282.36 357.77 281.54 357.34 280.72C356.315 278.86 355.397 276.944 354.59 274.98C352.79 270.41 353.59 267.93 355.02 267.13C355.42 266.884 355.896 266.796 356.358 266.88C356.819 266.965 357.233 267.218 357.52 267.59C358.343 268.814 359.069 270.102 359.69 271.44C359.74 271.55 359.8 271.65 359.86 271.76C359.09 268.19 358.86 266.21 360.1 265.2C360.329 265.005 360.605 264.871 360.9 264.809C361.195 264.748 361.501 264.762 361.79 264.85C363.13 265.25 363.66 266.85 364.63 269.85C364.756 270.27 364.896 270.7 365.05 271.14C364.95 269 365.2 266.81 366.53 266.14C366.816 265.989 367.133 265.904 367.457 265.892C367.78 265.88 368.103 265.941 368.4 266.07C369.49 266.56 370.12 267.8 371.06 271.31C371.083 270.847 371.275 270.408 371.599 270.077C371.923 269.745 372.357 269.544 372.82 269.51C374.56 269.34 375.51 271.12 377.64 275.02C380.41 280.1 384.64 287.78 390.79 291.1C402.87 297.58 403.79 297.1 419.13 289.49C441.68 278.28 447.61 266.21 459.42 242.15L461.09 238.74C464.62 231.59 475.14 201.22 475.25 200.91L475.7 199.62L477.03 199.93C484.25 201.64 489.23 205.55 491.84 211.57C497.84 225.4 489.38 246.57 484.07 255.79C452.29 311.16 419.51 318.54 404.34 318.54ZM354.82 286.54L355.04 286.69C359.802 289.971 364.165 293.797 368.04 298.09C371.78 301.84 385.4 314.32 401.6 315.38C414.6 316.22 448.26 311.96 481.41 254.23C487.28 244.01 494.15 224.53 489.03 212.72C486.98 208 483.15 204.79 477.62 203.18C475.52 209.18 467 233.49 463.78 240.03L462.11 243.44C450 268.1 443.92 280.49 420.45 292.16C412.84 295.94 408.24 298.23 403.98 298.54C399.72 298.85 395.98 297.31 389.33 293.72C382.68 290.13 378.33 282.63 375.41 277.26C375.77 279.26 375.7 280.37 374.95 281.12C374.708 281.365 374.405 281.541 374.073 281.629C373.741 281.717 373.391 281.714 373.06 281.62C372.06 281.37 369.74 278.23 368.16 272.26C368.212 273.107 368.342 273.947 368.55 274.77C368.86 275.54 369.79 278.15 368.83 279.12L368.13 279.83L367.3 279.51C366.3 279.3 365.12 278.66 363.77 276.06C363.94 277.59 363.71 278.55 362.7 279.01C360.7 279.94 359.29 277.33 357.07 273.01C357.16 273.28 357.26 273.57 357.38 273.88C358.156 275.732 359.03 277.541 360 279.3C360.44 280.14 360.88 280.98 361.3 281.82L361.39 282C362.23 283.61 362.92 285.16 362.2 286.29C360.91 288.29 358.2 287.55 355.84 286.88L354.82 286.54ZM368.17 276.54L368.33 276.6L368.17 276.54Z" fill="#03243B"/>
<path d="M250 630.68C243 636.76 239.53 645.57 232.13 651.49C230.42 652.85 228.83 654.32 227.05 655.59C226.72 655.82 225.18 656.31 225.18 656.84C225.18 660.84 231.46 666.08 234.44 667.98C235.53 668.67 237.86 669.82 239.08 668.78C241.6 666.61 243.08 663.28 244.96 660.58C247.59 656.85 251.6 653.72 255.12 650.87C257.29 649.11 259.6 647.62 261.89 646.05C262.61 645.56 263.96 644.9 264.3 644.05C265.1 641.91 263.48 640.66 262.3 639.23C260.119 636.747 257.597 634.586 254.81 632.81C253.42 631.9 251.3 629.52 250 630.68Z" fill="white"/>
<path d="M237.79 670.71C236.289 670.6 234.843 670.097 233.6 669.25C230.83 667.49 223.6 661.82 223.6 656.84C223.6 655.48 224.96 654.84 225.85 654.46L226.17 654.32C227.17 653.58 228.17 652.74 229.26 651.85C229.88 651.33 230.49 650.85 231.12 650.31C234.81 647.31 237.45 643.68 240.24 639.8C242.741 636.044 245.682 632.6 249 629.54C251 627.81 253.32 629.7 254.71 630.83C255.03 631.09 255.33 631.34 255.59 631.51C258.49 633.363 261.116 635.615 263.39 638.2L263.92 638.8C265.1 640.08 266.71 641.85 265.71 644.54C265.157 645.613 264.273 646.479 263.19 647.01L262.74 647.3L261.3 648.3C259.47 649.55 257.73 650.72 256.06 652.07L255.46 652.56C252.22 655.18 248.55 658.14 246.19 661.48C245.61 662.3 245.07 663.19 244.51 664.12C243.34 666.29 241.835 668.261 240.05 669.96C239.414 670.478 238.609 670.745 237.79 670.71ZM226.72 657.42C227.31 660.29 231.95 664.62 235.23 666.7C236.7 667.64 237.86 667.8 238.06 667.63C239.595 666.135 240.891 664.411 241.9 662.52C242.47 661.58 243.05 660.61 243.69 659.71C246.3 656.02 250.14 652.92 253.53 650.18L254.14 649.69C255.9 648.26 257.78 646.99 259.59 645.76L261.01 644.76L261.58 644.4C262.055 644.134 262.487 643.797 262.86 643.4C263.16 642.58 262.86 642.11 261.67 640.78C261.46 640.56 261.26 640.34 261.07 640.11C258.982 637.733 256.564 635.669 253.89 633.98C253.56 633.75 253.18 633.45 252.78 633.12C252.21 632.603 251.57 632.169 250.88 631.83C247.795 634.728 245.06 637.976 242.73 641.51C239.94 645.39 237.06 649.4 233.04 652.61C232.43 653.1 231.83 653.61 231.24 654.1C230.18 655 229.08 655.92 227.9 656.76C227.655 656.915 227.397 657.049 227.13 657.16L226.72 657.42Z" fill="#03243B"/>
<path d="M244 661.25C247.78 661.59 246.44 665.16 245.21 667.53C243.21 671.39 238.39 681.53 233.21 681.38C220.29 681.1 193.21 655.2 190.57 650.87C187.8 646.24 182.89 637.76 186.34 632.17C187.84 629.73 189.85 631.3 191.57 632.55C195.51 635.42 198.38 639.02 202.73 641.55C207.08 644.08 213.15 646.65 218.35 647.12C222.35 647.47 226.73 646.06 230.47 647.96C232.34 648.91 230.62 651.5 230.26 652.89C229.826 654.959 230.228 657.116 231.38 658.89C235 664.2 239.36 660.83 244 661.25Z" fill="#03243B"/>
<path d="M233.23 682.9H233.11C219.47 682.59 191.89 656.11 189.21 651.64C186.53 647.17 181 637.89 185 631.37C185.263 630.887 185.625 630.465 186.063 630.132C186.501 629.799 187.004 629.563 187.54 629.44C189.34 629.09 190.98 630.28 192.29 631.23L192.42 631.33C194.042 632.553 195.598 633.862 197.08 635.25C199.015 637.14 201.147 638.816 203.44 640.25C208.44 643.25 214.1 645.25 218.44 645.61C219.773 645.688 221.11 645.668 222.44 645.55C225.31 645.37 228.29 645.18 231.09 646.61C233.89 648.04 232.58 650.93 232.01 652.35C231.88 652.65 231.766 652.957 231.67 653.27C231.342 654.912 231.661 656.618 232.56 658.03C234.56 660.9 236.56 660.57 239.56 660.08C241.062 659.763 242.598 659.646 244.13 659.73C244.817 659.733 245.492 659.913 246.089 660.253C246.687 660.593 247.186 661.081 247.54 661.67C248.65 663.67 247.54 666.38 246.54 668.22L246.1 669.07C243.6 673.92 239 682.9 233.23 682.9ZM188.23 632.4H188.15C188 632.4 187.79 632.63 187.6 632.95C184.54 637.95 189.66 646.44 191.84 650.08C194.26 654.08 221.11 679.59 233.21 679.86H233.27C237.17 679.86 241.71 671.02 243.42 667.69L243.87 666.82C245.28 664.1 244.96 663.26 244.87 663.12C244.78 662.98 244.38 662.8 243.87 662.75C242.592 662.693 241.312 662.797 240.06 663.06C237 663.57 233.2 664.2 230.12 659.76C229.424 658.702 228.947 657.516 228.717 656.271C228.486 655.025 228.508 653.747 228.78 652.51C228.904 652.07 229.058 651.639 229.24 651.22C229.539 650.616 229.722 649.961 229.78 649.29C227.69 648.29 225.25 648.41 222.67 648.57C221.183 648.685 219.688 648.685 218.2 648.57C213.43 648.15 207.35 645.99 201.94 642.81C199.445 641.292 197.118 639.512 195 637.5C193.601 636.178 192.129 634.936 190.59 633.78L190.46 633.68C189.805 633.099 189.035 632.663 188.2 632.4H188.23Z" fill="#03243B"/>
<path d="M237.17 676.05C236.77 676.05 236.07 675.67 234.34 674.75C233.26 674.17 232.04 673.51 231.58 673.34L229.44 672.54C226.008 671.337 222.649 669.934 219.38 668.34C211.539 664.236 204.194 659.247 197.49 653.47C194.66 651.12 188.05 644.78 187.69 636.64C187.684 636.439 187.758 636.244 187.894 636.097C188.03 635.949 188.219 635.861 188.42 635.85C188.519 635.846 188.618 635.862 188.711 635.897C188.805 635.931 188.89 635.984 188.962 636.052C189.035 636.12 189.093 636.202 189.134 636.292C189.175 636.383 189.197 636.481 189.2 636.58C189.54 644.11 195.79 650.09 198.46 652.31C205.08 658.014 212.33 662.943 220.07 667C223.284 668.563 226.586 669.939 229.96 671.12L232.11 671.92C232.67 672.13 233.88 672.78 235.06 673.41C235.69 673.75 236.5 674.19 236.94 674.41C237.041 674.402 237.143 674.415 237.239 674.448C237.336 674.48 237.424 674.532 237.5 674.6C237.667 674.724 237.779 674.908 237.813 675.114C237.846 675.319 237.799 675.53 237.68 675.7C237.52 675.92 237.4 676.05 237.17 676.05Z" fill="#66A8F7"/>
<path d="M545.53 609.89C544.91 611.8 553.31 620.89 554.13 625.42C555.2 631.26 558.05 636.35 559.77 636.78C561.23 637.15 564.93 630.93 565.7 629.97C566.47 629.01 568.08 628.23 568.4 627.1C569.1 624.66 566.54 620.86 565.11 618.85C562.11 614.67 560.03 606.35 557.76 604.65C555.16 602.7 546.3 607.5 545.53 609.89Z" fill="white"/>
<path d="M559.93 638.32C559.752 638.316 559.574 638.293 559.4 638.25C556.51 637.52 553.64 631.17 552.64 625.69C552.27 623.69 549.78 620.04 547.77 617.14C544.85 612.92 543.58 610.98 544.09 609.42C544.88 606.96 549.7 604.26 552.87 603.25C555.46 602.43 557.41 602.49 558.67 603.44C560.2 604.59 561.33 607.3 562.77 610.73C563.711 613.258 564.908 615.684 566.34 617.97C568.42 620.88 570.69 624.59 569.86 627.52C569.442 628.575 568.713 629.478 567.77 630.11C567.453 630.353 567.156 630.62 566.88 630.91C566.73 631.11 566.46 631.52 566.1 632.05C563.27 636.27 561.6 638.32 559.93 638.32ZM547 610.22C547.911 612.051 548.992 613.792 550.23 615.42C552.62 618.89 555.09 622.47 555.58 625.15C556.58 630.46 558.84 634.26 559.88 635.15C561.253 633.673 562.481 632.069 563.55 630.36C563.97 629.73 564.27 629.28 564.48 629.02C564.879 628.558 565.325 628.139 565.81 627.77C566.17 627.48 566.81 626.93 566.91 626.68C567.15 625.82 566.82 623.91 563.83 619.73C562.263 617.26 560.959 614.632 559.94 611.89C558.94 609.5 557.69 606.51 556.82 605.89C556.61 605.74 555.76 605.58 554.03 606.08C550.86 607 547.62 609.27 547 610.22Z" fill="#03243B"/>
<path d="M565.11 618.85C564.11 617.61 569.2 617.33 572.56 621.41C575.92 625.49 577.11 629.98 575.15 634.71C573.19 639.44 555.15 659.62 555.15 659.62C555.15 659.62 550.89 660.89 541.43 660.7C534.43 660.56 528.97 660 528.97 660C528.97 660 527.64 656.35 528.59 655.59C532.32 652.59 535.25 653.28 543.9 647.05C545.9 645.61 549.51 637.68 554.15 625.42C555.6 621.6 558.27 632.42 559.47 632.18C564 631.17 566 619.87 565.11 618.85Z" fill="#03243B"/>
<path d="M543.27 662.24H541.38C534.38 662.09 528.85 661.53 528.8 661.52L527.85 661.42L527.53 660.53C526.75 658.4 526.14 655.61 527.63 654.42C529.207 653.227 530.948 652.27 532.8 651.58C536.435 650.109 539.864 648.173 543 645.82C543.74 645.29 546.17 642.18 552.73 624.88C553.28 623.43 554.17 623.1 554.82 623.09H554.87C556.66 623.09 557.6 625.27 558.87 628.29C559.14 628.93 559.51 629.79 559.81 630.37C560.382 629.925 560.864 629.375 561.23 628.75C562.805 625.945 563.667 622.796 563.74 619.58C563.579 619.338 563.477 619.062 563.442 618.774C563.407 618.485 563.441 618.193 563.54 617.92C563.693 617.549 563.947 617.228 564.272 616.994C564.597 616.759 564.98 616.619 565.38 616.59C567.12 616.29 570.93 617.08 573.7 620.45C577.6 625.19 578.58 630.32 576.51 635.29C574.44 640.26 558.09 658.55 556.23 660.63L556 661L555.59 661.12C555.39 661.12 551.55 662.24 543.27 662.24ZM530.09 658.58C531.96 658.75 536.3 659.08 541.44 659.19C545.752 659.386 550.071 659.077 554.31 658.27C559.5 652.45 572.24 637.75 573.75 634.13C575.4 630.13 574.63 626.3 571.39 622.37C570.241 620.922 568.607 619.939 566.79 619.6C566.95 622.32 565.53 626.6 565.52 626.68C564.52 629.5 562.77 633 559.78 633.68C558.08 634.05 557.34 632.34 556.12 629.51C555.85 628.89 555.45 627.97 555.12 627.21C548.74 643.88 546.26 647.21 544.8 648.3C541.476 650.773 537.846 652.807 534 654.35C532.493 654.907 531.067 655.664 529.76 656.6C529.782 657.271 529.893 657.937 530.09 658.58Z" fill="#03243B"/>
<path d="M545.3 651.67C544.949 651.651 544.607 651.552 544.3 651.38C542.739 650.884 541.293 650.078 540.05 649.01C540.05 649.01 538.95 647.89 538.99 647.01C538.998 646.866 539.037 646.725 539.104 646.597C539.172 646.47 539.266 646.358 539.38 646.27C540.07 645.76 541.09 646.12 541.84 646.38L542.18 646.49C542.72 646.644 543.251 646.828 543.77 647.04C545.062 647.615 546.441 647.97 547.85 648.09C547.64 647.91 547.4 647.73 547.26 647.62L546.94 647.36C546.49 647 546.04 646.66 545.58 646.36C544.82 645.78 544.02 645.19 543.28 644.5C543.12 644.34 541.71 642.98 542.54 642.03C543.16 641.33 544.38 641.64 546.14 642.38L546.61 642.56C550.23 643.89 551.42 643.86 551.8 643.75C551.594 643.44 551.352 643.155 551.08 642.9C549.951 641.755 548.727 640.708 547.42 639.77L547.19 639.64C546.1 639.02 545.44 638.59 545.44 637.93C545.446 637.777 545.489 637.628 545.566 637.496C545.643 637.363 545.751 637.251 545.88 637.17C546.37 636.91 546.82 637.17 547.18 637.47L547.37 637.6L547.88 637.87C548.21 638.04 548.53 638.21 548.88 638.35C550.572 639.036 552.385 639.376 554.21 639.35C554.412 639.35 554.605 639.43 554.748 639.573C554.89 639.715 554.97 639.909 554.97 640.11C554.97 640.21 554.951 640.308 554.912 640.4C554.874 640.491 554.818 640.574 554.747 640.644C554.676 640.714 554.593 640.769 554.5 640.806C554.408 640.843 554.31 640.862 554.21 640.86C553.058 640.867 551.908 640.75 550.78 640.51C551.22 640.9 551.66 641.33 552.11 641.77C552.56 642.21 553.94 643.59 553.11 644.59C552.04 645.93 549.11 645.08 546.04 643.96L545.75 643.85L545.51 643.76C545.074 643.567 544.626 643.4 544.17 643.26L544.27 643.37C544.96 644 545.69 644.55 546.46 645.14C546.92 645.49 547.39 645.85 547.85 646.22L548.15 646.45C548.92 647.04 549.71 647.65 549.67 648.45C549.655 648.623 549.597 648.79 549.503 648.936C549.409 649.083 549.281 649.204 549.13 649.29C547.65 650.18 545.13 649.29 543.2 648.5C542.64 648.29 542.11 648.1 541.75 648L541.3 647.86L540.85 647.71L541.05 647.94C542.136 648.851 543.394 649.531 544.75 649.94L544.93 650.02H545.01C545.134 649.945 545.275 649.903 545.42 649.9C545.622 649.9 545.815 649.98 545.958 650.123C546.1 650.265 546.18 650.459 546.18 650.66C546.181 650.824 546.141 650.985 546.064 651.13C545.987 651.275 545.876 651.398 545.74 651.49C545.61 651.585 545.459 651.646 545.3 651.67Z" fill="#66A8F7"/>
<path d="M533.62 659.33C533.438 659.328 533.263 659.26 533.127 659.139C532.99 659.018 532.902 658.852 532.878 658.671C532.854 658.491 532.895 658.308 532.995 658.155C533.094 658.003 533.245 657.891 533.42 657.84C536.041 657.208 538.724 656.872 541.42 656.84C543.596 656.797 545.765 656.59 547.91 656.22C548.32 656.13 548.83 656.07 549.37 656.01C550.458 655.969 551.528 655.718 552.52 655.27C553.785 654.243 554.908 653.053 555.86 651.73C556.32 651.15 556.77 650.59 557.18 650.13C559.33 647.7 561.42 645.04 563.43 642.47C566.163 638.848 569.098 635.383 572.22 632.09C572.29 632.02 572.372 631.964 572.464 631.926C572.555 631.888 572.653 631.868 572.751 631.867C572.85 631.867 572.948 631.886 573.04 631.923C573.131 631.961 573.215 632.016 573.285 632.085C573.355 632.155 573.411 632.238 573.449 632.329C573.488 632.42 573.508 632.518 573.508 632.617C573.509 632.716 573.489 632.814 573.452 632.905C573.415 632.997 573.36 633.08 573.29 633.15C570.212 636.407 567.318 639.832 564.62 643.41C562.62 645.99 560.5 648.67 558.31 651.13C557.92 651.58 557.49 652.13 557.04 652.67C556.003 654.119 554.767 655.415 553.37 656.52C552.186 657.132 550.882 657.474 549.55 657.52C549.05 657.58 548.55 657.64 548.21 657.71C545.99 658.102 543.744 658.32 541.49 658.36C538.897 658.379 536.314 658.687 533.79 659.28C533.736 659.304 533.679 659.321 533.62 659.33Z" fill="#66A8F7"/>
<path d="M625 261.21C624.07 267.4 606.73 264.51 606.19 260.35C605.99 258.86 606.58 251.11 609.95 251.09C616 251.05 625 261.21 625 261.21Z" fill="#03243B"/>
<path d="M617.7 266.3H617.47C612.6 266.25 605.15 264.38 604.65 260.55C604.46 259.11 604.81 253.55 607 250.99C607.35 250.556 607.791 250.205 608.293 249.961C608.794 249.718 609.343 249.587 609.9 249.58C616.45 249.58 625.09 259.12 626.05 260.21L626.52 260.74L626.42 261.44C626 264.53 622.8 266.3 617.7 266.3ZM609.94 252.6C609.85 252.6 609.64 252.6 609.29 252.98C607.95 254.51 607.5 258.98 607.65 260.15C607.77 261.06 612.04 263.21 617.5 263.27C619.85 263.27 622.5 262.85 623.24 261.58C620.45 258.58 614 252.6 609.94 252.6Z" fill="#03243B"/>
<path d="M532 385.49C500.3 406.17 442.57 380.64 433.63 366.57C424.69 352.5 453.91 288.57 484.98 308.96C516.05 329.35 547.64 375.27 532 385.49Z" fill="#03243B"/>
<path d="M502.29 394.8C495.252 394.745 488.239 393.944 481.37 392.41C457.61 387.26 437.37 375.41 432.3 367.41C426.05 357.56 436.43 328.41 451.45 313.62C462.62 302.62 474.81 300.52 485.77 307.73C511.96 324.94 537.65 359.14 537.62 376.73C537.62 381.3 535.98 384.67 532.78 386.73C523.52 392.8 512.65 394.8 502.29 394.8ZM472.48 306.49C464.92 306.49 458.35 311.04 453.57 315.75C438.57 330.51 429.76 357.75 434.86 365.75C439.65 373.3 459.75 384.62 482.01 389.45C507.5 394.98 522.79 389.66 531.12 384.23C533.45 382.71 534.58 380.23 534.59 376.72C534.59 360.24 509.14 326.72 484.1 310.23C480.685 307.854 476.639 306.552 472.48 306.49Z" fill="#03243B"/>
<path d="M419.36 318.18C412.98 320.24 413.51 329.11 412.36 334.74C411.871 337.22 411.583 339.734 411.5 342.26C411.03 355.72 416.14 368.13 418.76 381.26C424.2 408.46 435.68 434.9 446.37 460.61C483.48 549.9 538.23 618.09 538.23 618.09C553.5 616.22 559.35 613.22 563.89 607.43C564.27 606.94 542.57 547.55 535.4 527.49C529.02 509.62 529.63 513.14 524.27 494.91C512.12 453.6 500.6 412.07 488.81 370.8C485.35 358.69 482.37 346.56 477.81 335.05C476.23 331.11 474.67 298.45 470.96 295.67C460.51 287.83 444.88 307.28 433.23 304.37C428.76 303.25 423.6 316.8 419.36 318.18Z" fill="#03243B"/>
<path d="M537.6 619.68L537.07 619.03C536.53 618.34 481.76 549.64 445 461.18L442.7 455.67C432.7 431.72 422.38 406.96 417.3 381.55C416.48 377.48 415.41 373.4 414.37 369.45C412.06 360.71 409.68 351.67 410 342.21C410.088 339.603 410.389 337.008 410.9 334.45C411.12 333.32 411.28 332.03 411.45 330.67C412.12 325.32 412.94 318.67 418.9 316.74C420.28 316.29 422.42 313.17 424.14 310.66C427.2 306.22 430.07 302.02 433.58 302.89C438.28 304.07 444.18 300.89 449.89 297.89C457.49 293.82 465.36 289.61 471.89 294.48C474.35 296.33 475.61 304.42 477.49 321.85C478.1 327.46 478.73 333.26 479.23 334.51C482.89 343.66 485.58 353.35 488.17 362.72C488.88 365.28 489.59 367.85 490.33 370.41C494.23 384.09 498.116 397.79 501.99 411.51C509.69 438.74 517.66 466.9 525.78 494.51C529.4 506.79 530.29 509.17 532.45 514.91C533.5 517.72 534.82 521.22 536.89 527.02C538.96 532.82 542.11 541.52 545.64 551.28C550.08 563.55 555.11 577.46 558.96 588.28C565.84 607.54 565.84 607.54 565.14 608.43C559.98 615.01 553.25 617.84 538.48 619.65L537.6 619.68ZM432.6 305.81C431.1 305.81 428.4 309.74 426.6 312.38C424.31 315.71 422.15 318.85 419.79 319.62C415.67 320.95 415.03 326.08 414.42 331.05C414.24 332.46 414.08 333.8 413.83 335.05C413.354 337.447 413.073 339.878 412.99 342.32C412.68 351.32 414.9 359.76 417.25 368.69C418.31 372.69 419.39 376.81 420.25 380.96C425.25 406.08 435.55 430.7 445.48 454.51L447.78 460.03C482.45 543.45 533.2 609.22 538.9 616.48C553.25 614.64 558.41 611.71 562.26 607.05C560.87 602.39 550.45 573.6 542.74 552.28C539.21 542.52 536.02 533.68 533.99 528C531.96 522.32 530.62 518.75 529.56 515.94C527.38 510.13 526.47 507.73 522.83 495.34C514.7 467.71 506.73 439.54 499.03 412.34C495.15 398.627 491.26 384.93 487.36 371.25C486.63 368.68 485.92 366.11 485.2 363.54C482.63 354.25 479.97 344.64 476.37 335.65C475.74 334.08 475.25 329.74 474.43 322.19C473.54 313.92 471.87 298.53 470.02 296.91C465.07 293.2 458.39 296.78 451.31 300.57C445.09 303.9 438.67 307.34 432.83 305.88L432.6 305.81Z" fill="#03243B"/>
<path d="M549 595.89C548.887 595.89 548.776 595.858 548.681 595.798C548.585 595.738 548.508 595.652 548.46 595.55C543.89 586.41 539.38 577.55 535.03 568.99C506.35 512.6 481.59 463.9 470.25 395.86C470.236 395.782 470.239 395.702 470.257 395.625C470.274 395.548 470.307 395.475 470.353 395.41C470.399 395.346 470.457 395.291 470.524 395.249C470.592 395.207 470.666 395.178 470.745 395.165C470.823 395.152 470.903 395.154 470.98 395.172C471.057 395.19 471.13 395.223 471.195 395.269C471.259 395.315 471.314 395.373 471.356 395.44C471.398 395.507 471.426 395.582 471.44 395.66C482.75 463.52 507.44 512.14 536.11 568.44C540.5 577 545 585.87 549.58 595C549.616 595.072 549.637 595.15 549.643 595.23C549.649 595.31 549.64 595.39 549.615 595.466C549.589 595.542 549.55 595.613 549.497 595.673C549.445 595.734 549.381 595.784 549.31 595.82C549.213 595.868 549.107 595.892 549 595.89Z" fill="white"/>
<path d="M412 352.38C411.92 352.38 411.841 352.364 411.767 352.333C411.693 352.302 411.626 352.257 411.57 352.2C411.513 352.145 411.468 352.079 411.437 352.006C411.406 351.933 411.39 351.854 411.39 351.775C411.39 351.695 411.406 351.617 411.437 351.544C411.468 351.471 411.513 351.405 411.57 351.35C412.71 350.21 413.36 348.29 413.94 346.6C414.09 346.16 414.24 345.73 414.39 345.33C414.81 344.22 415.25 343.11 415.7 342C416.978 339.12 417.983 336.127 418.7 333.06C418.9 332.06 419.08 331.06 419.26 330.06C419.44 329.06 419.65 327.95 419.86 326.9L420.11 325.46C420.44 323.46 420.46 323.38 421.03 323.46C421.184 323.479 421.326 323.554 421.429 323.67C421.532 323.785 421.589 323.935 421.59 324.09C421.591 324.177 421.57 324.263 421.53 324.34C421.53 324.59 421.38 325.21 421.3 325.69C421.22 326.17 421.11 326.88 421.05 327.16C420.844 328.206 420.644 329.256 420.45 330.31C420.27 331.31 420.09 332.31 419.89 333.31C419.151 336.45 418.127 339.516 416.83 342.47C416.38 343.57 415.94 344.67 415.53 345.76C415.38 346.16 415.24 346.57 415.09 347.01C414.47 348.82 413.76 350.88 412.43 352.21C412.374 352.265 412.306 352.309 412.232 352.338C412.159 352.367 412.08 352.381 412 352.38Z" fill="white"/>
<path d="M482.34 298.62C481.22 298.49 457.11 328.93 455.05 331.57C449.97 338.12 445.12 344.75 439.84 351.21C423.57 371.09 407.84 391.47 390.99 410.85C375.39 428.85 362.04 448.22 347.54 467.06C331.54 487.87 255.94 601 247.64 614.83C246.44 616.83 240 627.69 240.52 629.83C241.12 632.23 244.77 633.99 246.42 635.23C254.23 641.1 262.42 647.01 270.22 652.9C273.83 655.58 311.78 615 321 605C336.22 588.62 350.54 571.59 365.19 554.68C390.08 525.96 435.7 470.05 470.85 425.35C495.59 393.93 515.12 368 518.63 361C520.69 356.88 533.44 336.81 530.99 331.9C528.38 326.69 523.29 318.19 518.54 315.81C504.53 308.84 497.85 300.35 482.34 298.62Z" fill="#03243B"/>
<path d="M270.65 654.62C270.155 654.611 269.682 654.419 269.32 654.08C265.41 651.15 261.43 648.21 257.45 645.28C253.47 642.35 249.45 639.36 245.51 636.41C245.16 636.15 244.71 635.86 244.22 635.55C242.22 634.24 239.67 632.61 239.06 630.17C238.88 629.48 238.36 627.38 246.34 614.05C254.19 600.97 330.34 486.99 346.34 466.14C351 460.13 355.55 454 360 448C369.44 435.29 379.21 422.15 389.87 409.85C401.13 396.85 412.12 383.18 422.74 369.96C427.95 363.48 433.33 356.78 438.68 350.24C442.1 346.06 445.4 341.72 448.59 337.53C450.34 335.23 452.1 332.92 453.88 330.63C454.76 329.5 461.23 321.31 467.88 313.09C480.98 296.93 481.44 296.99 482.51 297.09C493.21 298.29 500.01 302.69 507.21 307.36C511.069 309.96 515.076 312.334 519.21 314.47C525.08 317.4 530.75 328.04 532.34 331.24C534.29 335.14 529.89 344.3 522.14 357.82C521.14 359.56 520.36 360.93 519.98 361.68C515.62 370.41 488.09 405.9 472.07 426.27C436.28 471.79 390.84 527.42 366.36 555.66C362.974 559.574 359.597 563.49 356.23 567.41C345.23 580.19 333.86 593.41 322.14 606.02C316.34 612.28 305.03 624.33 294.58 634.75C277.72 651.57 272.73 654.62 270.65 654.62ZM482.74 300.19C479.45 303.28 460.08 327.58 456.25 332.5C454.47 334.78 452.73 337.08 450.98 339.37C447.78 343.59 444.46 347.95 440.98 352.17C435.64 358.69 430.26 365.39 425.05 371.86C414.41 385.11 403.4 398.81 392.11 411.86C381.52 424.06 371.79 437.16 362.38 449.86C357.94 455.86 353.38 462.01 348.71 468.04C332.71 488.84 256.71 602.6 248.91 615.66C244.3 623.35 241.91 628.48 241.98 629.57C242.28 630.76 244.34 632.09 245.84 633.06C246.39 633.41 246.9 633.74 247.29 634.06C251.21 637 255.21 639.96 259.22 642.91C263.23 645.86 267 648.66 270.83 651.53C273.88 650.76 288.4 637.99 319.89 604.05C331.57 591.48 342.89 578.28 353.89 565.52C357.27 561.61 360.64 557.68 364.03 553.77C388.48 525.56 433.89 469.98 469.65 424.49C497.19 389.49 514.09 366.71 517.23 360.42C517.65 359.59 518.45 358.18 519.47 356.42C522.38 351.35 531.21 335.93 529.59 332.69C526.66 326.83 521.82 319.28 517.82 317.28C513.579 315.094 509.469 312.664 505.51 310C498.5 305.35 492.39 301.39 482.74 300.19Z" fill="#03243B"/>
<path d="M418.59 378.13C418.452 378.133 418.317 378.087 418.21 378C418.147 377.95 418.096 377.889 418.057 377.819C418.019 377.749 417.995 377.673 417.987 377.594C417.978 377.515 417.986 377.435 418.009 377.358C418.031 377.282 418.069 377.211 418.12 377.15L423.48 370.48C428.67 364.02 434.04 357.34 439.37 350.82C442.8 346.63 446.1 342.29 449.29 338.09C451.04 335.79 452.79 333.49 454.57 331.2C454.67 331.076 454.814 330.995 454.973 330.974C455.131 330.954 455.291 330.995 455.42 331.09C455.483 331.138 455.537 331.198 455.577 331.267C455.617 331.336 455.643 331.413 455.653 331.492C455.663 331.571 455.658 331.651 455.637 331.728C455.615 331.805 455.579 331.877 455.53 331.94C453.75 334.23 452.01 336.53 450.26 338.82C447.06 343.03 443.75 347.38 440.26 351.59C434.94 358.1 429.57 364.78 424.38 371.24L419.02 377.91C418.966 377.973 418.9 378.025 418.827 378.063C418.753 378.1 418.672 378.123 418.59 378.13Z" fill="white"/>
<path d="M266.54 643.66C266.416 643.657 266.294 643.619 266.19 643.55C266.061 643.454 265.975 643.312 265.949 643.153C265.923 642.995 265.959 642.832 266.05 642.7C279.77 623.49 295.28 605.13 310.29 587.37C321.68 573.89 333.46 559.94 344.36 545.73C359.87 525.53 374.9 504.44 389.43 484.04C398.73 471.04 408.34 457.5 417.99 444.37L421.61 439.44C434.19 422.32 447.19 404.62 460.21 387.44C461.88 385.23 474.21 371.3 474.73 370.71C474.842 370.61 474.985 370.555 475.135 370.554C475.284 370.553 475.429 370.607 475.541 370.706C475.653 370.804 475.725 370.941 475.744 371.089C475.762 371.237 475.725 371.387 475.64 371.51C475.51 371.66 462.82 386 461.18 388.17C448.18 405.37 435.18 423.06 422.59 440.17L419 445.09C409.35 458.22 399.74 471.7 390.45 484.75C375.91 505.15 360.88 526.25 345.35 546.47C334.43 560.7 322.64 574.66 311.24 588.15C296.24 605.89 280.76 624.24 267.07 643.41C267.009 643.492 266.929 643.557 266.836 643.601C266.744 643.644 266.642 643.665 266.54 643.66Z" fill="white"/>
<path d="M494.82 375.13C493.73 375.13 492.77 373.24 490.88 367.33C490.74 366.88 490.63 366.55 490.57 366.39C487.68 358.68 486.87 351.01 486.02 342.9C485.89 341.68 485.76 340.47 485.62 339.25C485.324 336.784 485.16 334.303 485.13 331.82V325.57C485.119 325.484 485.126 325.396 485.152 325.314C485.177 325.231 485.22 325.154 485.277 325.089C485.334 325.024 485.405 324.972 485.484 324.936C485.563 324.9 485.648 324.882 485.735 324.882C485.822 324.882 485.907 324.9 485.986 324.936C486.065 324.972 486.136 325.024 486.193 325.089C486.25 325.154 486.293 325.231 486.318 325.314C486.344 325.396 486.351 325.484 486.34 325.57V331.82C486.371 334.257 486.534 336.69 486.83 339.11C486.957 340.336 487.087 341.556 487.22 342.77C488.07 350.77 488.87 358.4 491.71 365.97C491.77 366.14 491.88 366.49 492.03 366.97C492.628 368.985 493.356 370.959 494.21 372.88C494.051 370.448 493.659 368.037 493.04 365.68C492.617 363.928 492.284 362.155 492.04 360.37C490.8 350.48 490.8 341.1 490.8 331.16V330.6C490.8 330.438 490.864 330.283 490.979 330.168C491.093 330.054 491.248 329.99 491.41 329.99C491.572 329.99 491.727 330.054 491.841 330.168C491.956 330.283 492.02 330.438 492.02 330.6V331.16C492.02 341.06 492.02 350.4 493.24 360.22C493.46 361.93 493.86 363.7 494.24 365.41C494.932 367.99 495.334 370.64 495.44 373.31C495.458 373.428 495.484 373.545 495.52 373.66C495.603 373.85 495.64 374.056 495.628 374.263C495.616 374.47 495.555 374.671 495.45 374.85C495.376 374.944 495.279 375.019 495.17 375.068C495.06 375.116 494.94 375.138 494.82 375.13Z" fill="white"/>
<path d="M219.49 653.29H219.28C218.28 653.19 218.14 651.76 218.07 650.91C218 650.185 218 649.455 218.07 648.73C217.593 649.413 217.072 650.065 216.51 650.68C216.13 651.18 215.39 652.15 214.57 651.68C213.46 651.01 213.63 649.04 214.36 645.68L213.91 646.39C213.36 647.25 212.8 648.14 212.2 648.97C211.72 649.63 211.2 650.28 210.5 650.35C210.342 650.366 210.183 650.349 210.033 650.299C209.883 650.249 209.746 650.168 209.63 650.06C208.25 648.8 209.13 646.48 209.91 644.43C210.13 643.84 210.38 643.2 210.53 642.64C209.82 643.331 209.208 644.114 208.71 644.97C208.467 645.955 208.303 646.958 208.22 647.97V648.16C208.21 648.259 208.18 648.356 208.132 648.443C208.084 648.531 208.019 648.608 207.94 648.669C207.862 648.731 207.772 648.776 207.676 648.802C207.579 648.828 207.479 648.834 207.38 648.82C207.181 648.795 207.001 648.693 206.877 648.536C206.754 648.378 206.697 648.179 206.72 647.98V647.79C206.782 646.611 206.997 645.444 207.36 644.32C207.942 643.317 208.659 642.399 209.49 641.59L210 641C210.197 640.796 210.442 640.643 210.712 640.556C210.983 640.469 211.27 640.45 211.55 640.5C211.718 640.547 211.869 640.64 211.986 640.769C212.102 640.899 212.18 641.058 212.21 641.23C212.21 642.52 211.912 643.793 211.34 644.95C210.83 646.29 210.22 647.95 210.5 648.67C210.668 648.492 210.821 648.302 210.96 648.1C211.57 647.27 212.12 646.4 212.65 645.56C213.02 644.98 213.39 644.4 213.76 643.84L213.93 643.56C214.49 642.56 214.93 641.94 215.5 641.91C215.614 641.912 215.727 641.936 215.832 641.983C215.937 642.029 216.032 642.096 216.11 642.18C216.33 642.43 216.47 642.59 216.11 644.91C216.11 645.1 216.01 645.41 215.93 645.81C215.588 647.118 215.387 648.459 215.33 649.81L215.44 649.67C216.728 648.24 217.805 646.634 218.64 644.9L218.7 644.79C218.77 644.04 218.88 643.46 219.43 643.24C219.599 643.174 219.783 643.158 219.961 643.195C220.139 643.233 220.302 643.321 220.43 643.45C220.89 643.87 220.69 644.35 220.21 645.23C220.196 645.502 220.166 645.772 220.12 646.04L220.07 646.31C219.706 647.723 219.568 649.184 219.66 650.64V650.78C219.681 651.092 219.721 651.403 219.78 651.71C220.44 651.34 220.99 649.52 221.34 648.38C221.517 647.502 221.856 646.664 222.34 645.91C222.48 645.795 222.656 645.735 222.837 645.738C223.018 645.742 223.192 645.811 223.327 645.931C223.462 646.052 223.55 646.217 223.574 646.396C223.598 646.576 223.558 646.758 223.46 646.91C223.143 647.507 222.904 648.142 222.75 648.8C222.1 650.82 221.35 653.29 219.49 653.29Z" fill="#66A8F7"/>
<path d="M466.51 201.81C467.51 205.93 474.15 209.31 477.76 211.71C478.85 212.44 482.29 214.61 482.29 216.04C482.29 218.12 469.29 233.97 464.35 238.94C447.98 255.3 436.35 271.44 422.79 290.42C403.79 317.04 409.58 339.58 411.42 341.58C411.42 341.58 411.61 339 414.22 334.44C423.7 319.08 464.93 316.34 494.22 332.73C523.51 349.12 539 377.53 532 385.49C532 385.49 549.39 375.18 565.32 328.77C582.44 278.87 610.75 260.07 610.75 260.07C610.75 260.07 615 248 625 261.21C627.48 243.9 627.86 209.89 608.16 188.21C588.46 166.53 565.58 177.48 544.42 177.48C538.42 177.48 536.04 173.42 532.42 169.23C528.98 165.23 521.91 160.71 516.75 159.74C500.2 156.64 481.03 176.74 473.64 190.06C471.66 193.6 465.51 197.76 466.51 201.81Z" fill="#66A8F7"/>
<path d="M532 387C531.707 387.002 531.421 386.918 531.175 386.76C530.929 386.601 530.734 386.375 530.614 386.108C530.495 385.841 530.455 385.545 530.5 385.256C530.546 384.967 530.674 384.698 530.87 384.48C532.1 383.09 532.47 380.73 531.95 377.65C529.95 365.81 515.8 346.5 493.53 334.04C464.53 317.8 424.35 320.99 415.53 335.22C414.271 337.2 413.393 339.398 412.94 341.7C412.915 341.993 412.805 342.272 412.624 342.503C412.443 342.734 412.199 342.908 411.921 343.002C411.643 343.096 411.343 343.108 411.059 343.035C410.775 342.961 410.518 342.807 410.32 342.59C407.78 339.83 402.5 316.3 421.58 289.54C436.48 268.61 447.44 253.71 463.3 237.86C468.3 232.86 479.7 218.76 480.76 216.04C480.54 215.66 479.76 214.84 477.19 213.13L476.94 212.96L474.85 211.63C470.93 209.19 466.05 206.16 465.06 202.16C464.21 198.71 467.06 195.59 469.51 192.83C470.562 191.754 471.504 190.575 472.32 189.31C480.32 174.9 500.08 155.06 517.04 158.23C522.91 159.33 530.2 164.23 533.58 168.23C534.1 168.83 534.58 169.43 535.06 170.01C537.88 173.46 539.92 176.01 544.4 176.01C549.73 175.883 555.046 175.425 560.32 174.64C576.85 172.54 593.95 170.37 609.26 187.23C618.15 197.01 623.9 210.11 626.37 226.17C628.092 237.874 628.129 249.765 626.48 261.48C626.438 261.777 626.31 262.055 626.11 262.279C625.91 262.503 625.647 262.662 625.357 262.736C625.066 262.81 624.76 262.796 624.477 262.695C624.194 262.594 623.948 262.411 623.77 262.17C620.77 258.24 618.12 256.33 616.02 256.64C613.92 256.95 612.51 259.64 612.15 260.64C612.036 260.946 611.83 261.208 611.56 261.39C611.28 261.57 583.45 280.54 566.72 329.31C558.43 353.47 549.72 367.76 543.86 375.5C537.42 384.02 532.93 386.73 532.74 386.85C532.51 386.962 532.255 387.014 532 387ZM450.38 320.08C465.967 320.064 481.308 323.96 495 331.41C518.09 344.33 532.81 364.62 534.93 377.15C535.141 378.368 535.225 379.605 535.18 380.84C541.18 374.97 552.89 360.29 563.87 328.28C580.08 281.05 605.87 261.64 609.51 259.08C610.09 257.75 611.98 254.15 615.57 253.6C618.2 253.19 621.01 254.54 623.94 257.6C628.75 216.77 612.31 195.01 607.04 189.2C592.78 173.52 577.21 175.49 560.72 177.59C555.32 178.388 549.876 178.849 544.42 178.97C538.51 178.97 535.71 175.55 532.74 171.97C532.27 171.4 531.8 170.82 531.3 170.24C527.86 166.24 521.08 162.12 516.5 161.24C507.76 159.6 498.76 165.06 492.74 169.94C485.627 175.773 479.618 182.835 475 190.79C474.079 192.261 473.002 193.629 471.79 194.87C469.79 197.06 467.56 199.55 468.03 201.44C468.73 204.25 473.21 207.04 476.48 209.07C477.26 209.56 478 210.07 478.65 210.45L478.89 210.61C481.95 212.61 483.89 214.25 483.89 216.04C483.89 219.31 468.56 236.95 465.51 240.04C449.73 255.7 438.84 270.5 424 291.3C409.47 311.69 409.85 329.24 411.32 336.76C411.73 335.85 412.24 334.83 412.89 333.69C418.19 325.13 433 320.09 450.33 320.09L450.38 320.08Z" fill="#03243B"/>
<path d="M536.56 170C534.598 171.96 532.78 174.059 531.12 176.28C526.64 182.43 524.51 193.6 534.92 195.28C541.45 196.37 550.24 191.12 554.31 186.43C557.083 183.318 558.972 179.52 559.78 175.43C560.14 173.88 563.36 167.77 561.979 166.53C557.86 162.83 547.56 167.53 542.59 168.01C540.51 168.18 538.1 168.38 536.56 170Z" fill="white"/>
<path d="M536.76 197C536.06 197.002 535.362 196.949 534.67 196.84C529.67 196 527.57 193.24 526.67 191.07C524.67 186.07 526.91 179.47 529.88 175.4C531.58 173.119 533.441 170.963 535.45 168.95C537.33 167.02 540.05 166.75 542.23 166.54H542.42C544.171 166.275 545.902 165.891 547.6 165.39C553.15 163.93 559.45 162.28 562.97 165.45C564.63 166.94 563.6 169.9 561.97 173.92C561.698 174.537 561.458 175.168 561.25 175.81C560.392 180.155 558.386 184.192 555.44 187.5C551.89 191.54 543.87 197 536.76 197ZM557.35 166.64C554.296 166.839 551.275 167.396 548.35 168.3C546.499 168.846 544.611 169.257 542.7 169.53H542.51C540.64 169.72 538.71 169.91 537.6 171.04C535.693 172.947 533.925 174.989 532.31 177.15C529.74 180.68 527.93 186.15 529.45 189.89C530.32 192.02 532.23 193.34 535.12 193.82C541.26 194.82 549.52 189.63 553.12 185.47C555.732 182.527 557.51 178.94 558.27 175.08C558.501 174.274 558.789 173.485 559.13 172.72C559.66 171.44 560.86 168.5 560.77 167.52C559.764 166.842 558.561 166.516 557.35 166.59V166.64Z" fill="#03243B"/>
<path d="M540.47 182.12C538.95 182.178 537.435 181.905 536.03 181.32C534.445 180.411 533.205 179.005 532.5 177.32C532.448 177.18 532.449 177.025 532.504 176.886C532.558 176.746 532.662 176.631 532.795 176.563C532.928 176.496 533.082 176.479 533.227 176.517C533.372 176.555 533.497 176.645 533.58 176.77C534.181 178.209 535.234 179.413 536.58 180.2C539.4 181.53 546.2 181.11 554.48 177.04C554.551 177.004 554.628 176.982 554.708 176.976C554.787 176.971 554.866 176.98 554.942 177.006C555.017 177.031 555.087 177.071 555.146 177.123C555.206 177.175 555.255 177.239 555.29 177.31C555.326 177.382 555.347 177.461 555.353 177.541C555.358 177.621 555.347 177.702 555.321 177.778C555.295 177.854 555.254 177.925 555.201 177.985C555.147 178.045 555.083 178.095 555.01 178.13C549.21 181 544.15 182.12 540.47 182.12Z" fill="#DD7A64"/>
<path d="M422.79 291.94C422.512 291.94 422.24 291.864 422.002 291.72C421.765 291.575 421.572 291.368 421.445 291.121C421.318 290.874 421.261 290.596 421.281 290.319C421.302 290.042 421.398 289.776 421.56 289.55C436.46 268.62 447.42 253.72 463.28 237.87C468.21 232.93 479.4 218.14 480.96 215.31L481.2 214.88C483.11 211.44 488.2 202.29 489.95 191.57C489.982 191.373 490.053 191.184 490.158 191.014C490.263 190.845 490.401 190.697 490.563 190.581C490.725 190.464 490.908 190.381 491.103 190.335C491.297 190.29 491.498 190.283 491.695 190.315C491.892 190.347 492.081 190.418 492.251 190.523C492.42 190.628 492.568 190.765 492.684 190.927C492.801 191.089 492.884 191.273 492.93 191.467C492.976 191.661 492.982 191.863 492.95 192.06C491.09 203.3 485.84 212.78 483.86 216.35L483.63 216.77C481.78 220.11 470.33 235.1 465.43 240.01C449.73 255.7 438.84 270.5 424 291.3C423.864 291.495 423.684 291.656 423.473 291.767C423.263 291.878 423.028 291.938 422.79 291.94Z" fill="#03243B"/>
<path d="M625 262.73C624.727 262.73 624.458 262.656 624.224 262.515C623.99 262.374 623.798 262.172 623.67 261.93C622.98 260.66 620.42 258.31 618.97 257.13C617.169 255.619 615.145 254.395 612.97 253.5C604.3 250.43 592.43 252.57 590.28 254.4C590.047 254.602 589.757 254.727 589.45 254.759C589.143 254.791 588.833 254.728 588.563 254.579C588.293 254.43 588.075 254.201 587.938 253.924C587.802 253.647 587.754 253.335 587.8 253.03C589.096 243.29 589.431 233.446 588.8 223.64C588.802 223.261 588.945 222.897 589.203 222.619C589.46 222.341 589.812 222.17 590.19 222.14C590.568 222.109 590.943 222.222 591.241 222.456C591.539 222.689 591.739 223.026 591.8 223.4C592.392 232.475 592.171 241.584 591.14 250.62C596.45 248.72 606.5 248 613.96 250.62C616.502 251.621 618.866 253.025 620.96 254.78C621.36 255.1 625.18 258.25 626.38 260.46C626.475 260.634 626.535 260.826 626.555 261.024C626.576 261.221 626.558 261.421 626.501 261.611C626.444 261.802 626.351 261.979 626.225 262.133C626.1 262.288 625.945 262.416 625.77 262.51C625.54 262.655 625.273 262.731 625 262.73Z" fill="#03243B"/>
<path d="M505.7 263.29L371 284.48C369.425 284.728 367.814 284.607 366.294 284.126C364.774 283.645 363.386 282.818 362.24 281.71L355.42 275.12L332.83 74.7802C332.737 74.1957 332.761 73.5987 332.899 73.0234C333.038 72.4481 333.288 71.9057 333.637 71.4274C333.985 70.949 334.424 70.544 334.929 70.2356C335.434 69.9272 335.995 69.7215 336.58 69.6302L471.87 48.3402C473.046 48.1561 474.247 48.4466 475.209 49.148C476.171 49.8493 476.815 50.904 477 52.0802L509.43 258.14C509.614 259.317 509.326 260.519 508.627 261.484C507.928 262.449 506.876 263.098 505.7 263.29Z" fill="#03243B"/>
<path d="M502.89 258.77L371.81 279.4C368.982 279.84 366.094 279.139 363.782 277.452C361.47 275.764 359.923 273.228 359.48 270.4L329.24 78.26C329.03 76.9 331.17 65.92 332.53 65.71L464 45L473 53.09L505 255.93C505.05 256.255 505.034 256.587 504.955 256.906C504.875 257.226 504.733 257.526 504.537 257.79C504.341 258.054 504.094 258.277 503.812 258.445C503.529 258.613 503.216 258.724 502.89 258.77Z" fill="white"/>
<path d="M370.12 279.68C367.519 279.664 365.009 278.727 363.033 277.035C361.058 275.344 359.746 273.007 359.33 270.44L329.09 78.2801C329.209 75.9963 329.564 73.7309 330.15 71.5201C330.76 68.8801 331.66 65.6901 332.5 65.5201L464.07 44.8501L464.12 44.9001L473.18 53.0001L505.11 255.9C505.211 256.587 505.038 257.287 504.628 257.848C504.219 258.409 503.605 258.787 502.92 258.9L371.84 279.55C371.271 279.638 370.696 279.681 370.12 279.68ZM464 45.1801L332.55 65.8601C332.17 65.9201 331.4 67.4601 330.44 71.5901C329.878 73.7646 329.526 75.9882 329.39 78.2301L359.63 270.4C360.073 273.184 361.601 275.679 363.881 277.338C366.16 278.997 369.004 279.685 371.79 279.25L502.87 258.62C503.48 258.522 504.027 258.186 504.391 257.685C504.754 257.185 504.905 256.561 504.81 255.95L472.9 53.1901L464 45.1801Z" fill="white"/>
<path d="M461.122 40.5425L325.826 61.8261C323.371 62.2123 321.694 64.5156 322.08 66.9707L354.497 273.037C354.883 275.492 357.186 277.169 359.641 276.783L494.937 255.499C497.392 255.113 499.07 252.809 498.683 250.354L466.267 44.2885C465.881 41.8334 463.577 40.1563 461.122 40.5425Z" fill="#66A8F7"/>
<path d="M359 278.32C357.566 278.322 356.179 277.812 355.089 276.88C353.999 275.948 353.279 274.657 353.06 273.24L320.63 67.2398C320.504 66.4595 320.534 65.6621 320.718 64.8935C320.902 64.1249 321.235 63.4001 321.7 62.7608C322.165 62.1215 322.751 61.5803 323.425 61.1683C324.1 60.7562 324.849 60.4815 325.63 60.3598L460.88 38.9998C461.66 38.8744 462.457 38.9045 463.226 39.0882C463.995 39.2719 464.719 39.6056 465.359 40.0702C465.998 40.5348 466.539 41.1211 466.951 41.7955C467.363 42.4698 467.638 43.2189 467.76 43.9998L500.19 250.06C500.315 250.84 500.285 251.637 500.101 252.406C499.918 253.175 499.584 253.899 499.119 254.539C498.655 255.178 498.068 255.719 497.394 256.131C496.72 256.543 495.971 256.818 495.19 256.94L359.9 278.25C359.602 278.296 359.301 278.319 359 278.32ZM461.82 41.9998C461.663 41.9854 461.506 41.9854 461.35 41.9998L326.06 63.2998C325.279 63.4276 324.58 63.8587 324.116 64.4992C323.651 65.1398 323.458 65.9379 323.58 66.7198L356 272.77C356.125 273.55 356.554 274.25 357.192 274.716C357.831 275.183 358.628 275.378 359.41 275.26L494.71 254L494.95 255.5L494.71 254C495.49 253.874 496.19 253.446 496.656 252.807C497.122 252.168 497.318 251.372 497.2 250.59L464.77 44.4898C464.65 43.7939 464.288 43.1627 463.748 42.7072C463.209 42.2518 462.526 42.0013 461.82 41.9998Z" fill="#03243B"/>
<path d="M361.41 273C361.049 273.001 360.7 272.873 360.426 272.638C360.153 272.403 359.973 272.077 359.92 271.72L327.61 66.4799C327.548 66.082 327.646 65.6757 327.883 65.3504C328.121 65.025 328.477 64.8072 328.875 64.7449C329.273 64.6825 329.679 64.7808 330.005 65.018C330.33 65.2553 330.548 65.612 330.61 66.0099L362.92 271.28C362.981 271.676 362.882 272.08 362.646 272.404C362.41 272.728 362.056 272.946 361.66 273.01C361.577 273.017 361.493 273.014 361.41 273Z" fill="#66A8F7"/>
<path d="M349.63 82.1002C349.251 82.0989 348.887 81.9554 348.609 81.698C348.331 81.4406 348.16 81.0882 348.13 80.7106C348.1 80.333 348.212 79.9579 348.446 79.6596C348.679 79.3613 349.016 79.1616 349.39 79.1002L437.92 65.1702C438.318 65.1078 438.724 65.2061 439.05 65.4433C439.375 65.6806 439.593 66.0373 439.655 66.4352C439.717 66.833 439.619 67.2393 439.382 67.5647C439.145 67.89 438.788 68.1078 438.39 68.1702L349.86 82.1102L349.63 82.1002Z" fill="#66A8F7"/>
<path d="M351.79 100.78C351.416 100.762 351.063 100.605 350.798 100.342C350.533 100.078 350.376 99.7253 350.356 99.352C350.336 98.9788 350.455 98.6113 350.69 98.3209C350.926 98.0305 351.26 97.8377 351.63 97.7798L400.45 92.5498C400.651 92.5192 400.857 92.5298 401.055 92.5808C401.252 92.6319 401.437 92.7224 401.599 92.847C401.76 92.9715 401.895 93.1275 401.994 93.3055C402.094 93.4834 402.156 93.6798 402.178 93.8825C402.2 94.0853 402.18 94.2904 402.12 94.4854C402.06 94.6804 401.962 94.8612 401.83 95.017C401.698 95.1728 401.537 95.3004 401.354 95.3919C401.172 95.4835 400.973 95.5372 400.77 95.5498L352 100.77L351.79 100.78Z" fill="#66A8F7"/>
<path d="M492.72 224.06L370.65 284.75C369.223 285.463 367.65 285.834 366.055 285.834C364.46 285.834 362.887 285.463 361.46 284.75L353 280.51L271.19 96.2298C270.667 95.1677 270.584 93.9423 270.958 92.8192C271.333 91.6961 272.135 90.7658 273.19 90.2298L395.82 29.2298C396.882 28.7069 398.108 28.6236 399.231 28.998C400.354 29.3724 401.284 30.1742 401.82 31.2298L494.75 218C495.016 218.531 495.174 219.109 495.216 219.701C495.258 220.294 495.183 220.888 494.994 221.451C494.805 222.015 494.507 222.535 494.117 222.982C493.727 223.43 493.252 223.796 492.72 224.06Z" fill="#03243B"/>
<path d="M488.69 220.59L369.87 279.67C367.308 280.942 364.346 281.145 361.634 280.234C358.922 279.322 356.684 277.372 355.41 274.81L268.81 100.62C268.2 99.4001 266.95 88.2802 268.18 87.6202L387.37 28.4102L398.37 33.4102L489.78 217.26C489.928 217.55 490.017 217.867 490.043 218.191C490.068 218.516 490.029 218.842 489.928 219.152C489.826 219.461 489.665 219.748 489.453 219.995C489.24 220.241 488.981 220.444 488.69 220.59Z" fill="white"/>
<path d="M365.09 280.94C363.053 280.944 361.055 280.378 359.322 279.308C357.589 278.237 356.189 276.704 355.28 274.88L268.67 100.69C268.09 99.5202 266.75 88.2102 268.11 87.5302L387.36 28.2402L398.51 33.3102L489.91 217.16C490.064 217.47 490.156 217.807 490.179 218.153C490.203 218.498 490.158 218.844 490.048 219.172C489.937 219.5 489.763 219.803 489.535 220.064C489.307 220.324 489.03 220.537 488.72 220.69L369.94 279.8C368.434 280.553 366.774 280.943 365.09 280.94ZM387.37 28.5802L268.24 87.8002C267.9 87.9702 267.62 89.6702 267.95 93.9002C268.067 96.1474 268.401 98.378 268.95 100.56L355.55 274.74C356.807 277.263 359.013 279.185 361.684 280.083C364.356 280.981 367.275 280.782 369.8 279.53L488.62 220.46C489.173 220.183 489.594 219.699 489.791 219.112C489.988 218.525 489.944 217.885 489.67 217.33L398.29 33.5402L387.37 28.5802Z" fill="white"/>
<path d="M383.239 24.9417L260.605 85.9246C258.379 87.0311 257.472 89.7322 258.579 91.9575L351.46 278.738C352.567 280.964 355.268 281.87 357.493 280.764L480.127 219.781C482.353 218.674 483.26 215.973 482.153 213.748L389.272 26.9673C388.165 24.742 385.464 23.8351 383.239 24.9417Z" fill="#66A8F7"/>
<path d="M355.49 282.78C354.369 282.785 353.268 282.476 352.314 281.887C351.359 281.299 350.589 280.454 350.09 279.45L257.23 92.6701C256.875 91.9627 256.664 91.1923 256.609 90.403C256.553 89.6137 256.654 88.8213 256.906 88.0712C257.158 87.3212 257.556 86.6283 258.076 86.0326C258.597 85.4369 259.23 84.95 259.94 84.6001L382.57 23.6001C383.277 23.2455 384.048 23.0343 384.837 22.9787C385.626 22.9231 386.419 23.0241 387.169 23.276C387.919 23.5279 388.612 23.9256 389.207 24.4463C389.803 24.9671 390.29 25.6004 390.64 26.3101L483.5 213.12C483.853 213.827 484.063 214.596 484.118 215.385C484.172 216.173 484.071 216.964 483.819 217.713C483.567 218.462 483.17 219.154 482.65 219.749C482.131 220.344 481.498 220.83 480.79 221.18L358.16 282.18C357.329 282.585 356.415 282.791 355.49 282.78ZM385.25 26.0001C384.789 25.9998 384.334 26.1059 383.92 26.3101L261.29 87.3101C260.583 87.6644 260.045 88.2834 259.792 89.0324C259.54 89.7814 259.593 90.6 259.94 91.3101L352.8 278.1C353.156 278.805 353.776 279.341 354.525 279.592C355.273 279.843 356.091 279.788 356.8 279.44L479.43 218.44C480.141 218.089 480.684 217.47 480.94 216.72C481.19 215.969 481.132 215.149 480.78 214.44L387.93 27.6901C387.755 27.3371 387.512 27.0221 387.215 26.763C386.918 26.5039 386.573 26.3058 386.2 26.1801C385.895 26.0706 385.574 26.0098 385.25 26.0001Z" fill="#03243B"/>
<path d="M357.58 276.79C357.298 276.791 357.021 276.713 356.78 276.565C356.54 276.416 356.346 276.203 356.22 275.95L263.72 89.89C263.632 89.712 263.579 89.5184 263.565 89.3201C263.551 89.1218 263.577 88.9227 263.64 88.7342C263.703 88.5456 263.803 88.3714 263.933 88.2214C264.064 88.0715 264.222 87.9486 264.4 87.86C264.578 87.7713 264.772 87.7186 264.97 87.7048C265.169 87.691 265.368 87.7164 265.556 87.7796C265.745 87.8427 265.919 87.9424 266.069 88.0728C266.219 88.2033 266.342 88.362 266.43 88.54L358.93 274.61C359.104 274.966 359.129 275.375 359.002 275.75C358.875 276.125 358.605 276.434 358.25 276.61C358.045 276.724 357.815 276.785 357.58 276.79Z" fill="#66A8F7"/>
<path d="M289 98.2301C288.717 98.2314 288.44 98.1533 288.2 98.0048C287.959 97.8563 287.765 97.6434 287.64 97.3901C287.475 97.0333 287.453 96.6264 287.579 96.2539C287.706 95.8815 287.971 95.5722 288.32 95.3901L368.57 55.5001C368.929 55.3211 369.345 55.2922 369.726 55.4197C370.107 55.5472 370.421 55.8208 370.6 56.1801C370.779 56.5395 370.808 56.9553 370.68 57.336C370.553 57.7167 370.279 58.0311 369.92 58.2101L289.67 98.1101C289.458 98.199 289.229 98.2399 289 98.2301Z" fill="#66A8F7"/>
<path d="M296.64 115.4C296.29 115.405 295.949 115.288 295.676 115.069C295.403 114.85 295.214 114.543 295.142 114.201C295.07 113.858 295.119 113.501 295.281 113.191C295.443 112.881 295.708 112.637 296.03 112.5L341.03 92.8299C341.392 92.7028 341.789 92.7174 342.141 92.8709C342.493 93.0245 342.774 93.3055 342.927 93.6575C343.08 94.0096 343.094 94.4066 342.967 94.7687C342.84 95.1309 342.58 95.4314 342.24 95.6099L297.24 115.27C297.051 115.354 296.847 115.399 296.64 115.4Z" fill="#66A8F7"/>
<path d="M502.92 112.52L517.5 267.94L504.63 278.7L265.87 288C264.505 288.153 263.135 287.764 262.054 286.917C260.973 286.07 260.268 284.832 260.09 283.47L246 133C245.96 132.328 246.054 131.654 246.277 131.018C246.5 130.382 246.847 129.797 247.299 129.297C247.75 128.798 248.297 128.393 248.907 128.106C249.516 127.82 250.177 127.658 250.85 127.63L497.14 108C498.504 107.847 499.873 108.234 500.954 109.08C502.034 109.925 502.74 111.16 502.92 112.52Z" fill="#03243B"/>
<path d="M497.35 115.25L511 261C511.61 267.54 517.51 272.42 510.47 273L280.77 291.27C279.15 291.4 266.34 288.18 266.2 286.67L252.51 140.44L252.01 135.08C251.986 134.665 252.045 134.25 252.183 133.858C252.322 133.466 252.537 133.106 252.816 132.799C253.096 132.492 253.434 132.243 253.81 132.068C254.187 131.893 254.595 131.795 255.01 131.78L494.17 112.78C494.917 112.697 495.667 112.909 496.261 113.37C496.855 113.831 497.246 114.505 497.35 115.25Z" fill="white"/>
<path d="M503.89 122.85L518 273.32C518.04 273.993 517.946 274.666 517.723 275.302C517.5 275.938 517.153 276.523 516.701 277.023C516.25 277.523 515.703 277.928 515.093 278.214C514.483 278.5 513.823 278.662 513.15 278.69L266.84 298.28C265.474 298.431 264.104 298.041 263.022 297.195C261.94 296.348 261.232 295.112 261.05 293.75L246.94 143.28C246.902 142.608 246.998 141.934 247.223 141.299C247.447 140.664 247.796 140.079 248.248 139.58C248.7 139.08 249.247 138.676 249.856 138.389C250.466 138.102 251.127 137.94 251.8 137.91L498.11 118.32C499.474 118.172 500.841 118.563 501.921 119.41C503.001 120.256 503.707 121.49 503.89 122.85Z" fill="#03243B"/>
<path d="M266.38 299.81C264.711 299.847 263.088 299.263 261.826 298.171C260.564 297.079 259.753 295.557 259.55 293.9L245.44 143.42C245.363 142.594 245.452 141.762 245.703 140.972C245.954 140.182 246.361 139.45 246.9 138.82C247.499 138.122 248.229 137.55 249.049 137.134C249.869 136.719 250.763 136.47 251.68 136.4L498 116.81C499.761 116.632 501.521 117.149 502.906 118.251C504.291 119.354 505.189 120.954 505.41 122.71L519.52 273.18C519.593 274.005 519.502 274.837 519.251 275.626C519 276.416 518.596 277.148 518.06 277.78C517.461 278.477 516.731 279.05 515.911 279.465C515.09 279.881 514.197 280.13 513.28 280.2L267 299.79L266.38 299.81ZM498.57 119.81H498.23L251.92 139.42C250.875 139.497 249.901 139.982 249.21 140.77C248.931 141.094 248.721 141.471 248.59 141.878C248.46 142.285 248.412 142.714 248.45 143.14L262.56 293.61C262.704 294.575 263.219 295.446 263.997 296.037C264.774 296.627 265.751 296.89 266.72 296.77L513 277.18C513.517 277.144 514.022 277.007 514.485 276.775C514.949 276.544 515.361 276.222 515.7 275.83C515.978 275.506 516.189 275.129 516.32 274.722C516.45 274.315 516.498 273.886 516.46 273.46L502.38 123C502.254 122.091 501.794 121.262 501.089 120.674C500.385 120.086 499.487 119.781 498.57 119.82V119.81Z" fill="#03243B"/>
<path d="M266.58 292C266.209 291.975 265.86 291.813 265.6 291.546C265.341 291.279 265.189 290.926 265.174 290.554C265.159 290.182 265.282 289.817 265.52 289.531C265.757 289.244 266.092 289.055 266.46 289L511.83 269.49C512.029 269.472 512.229 269.494 512.419 269.555C512.609 269.615 512.785 269.713 512.937 269.843C513.089 269.972 513.213 270.13 513.303 270.309C513.393 270.487 513.446 270.681 513.46 270.88C513.491 271.28 513.362 271.676 513.101 271.981C512.841 272.287 512.47 272.477 512.07 272.51L266.7 292H266.58Z" fill="#66A8F7"/>
<path d="M325.45 267.36C325.084 267.347 324.736 267.203 324.469 266.952C324.203 266.702 324.036 266.364 324 266L318 202.84C317.967 202.636 317.976 202.428 318.027 202.228C318.078 202.028 318.169 201.841 318.295 201.678C318.421 201.514 318.58 201.378 318.76 201.279C318.941 201.179 319.14 201.117 319.345 201.097C319.551 201.077 319.758 201.1 319.954 201.163C320.15 201.227 320.332 201.33 320.487 201.466C320.642 201.602 320.767 201.768 320.856 201.955C320.944 202.141 320.993 202.344 321 202.55L327 265.7C327.019 265.898 326.999 266.097 326.941 266.287C326.883 266.477 326.788 266.654 326.662 266.807C326.536 266.961 326.38 267.087 326.205 267.181C326.029 267.274 325.837 267.331 325.64 267.35L325.45 267.36Z" fill="#66A8F7"/>
<path d="M285.21 270.56C284.832 270.559 284.469 270.417 284.192 270.161C283.914 269.906 283.742 269.556 283.71 269.18L274.48 170.72C274.459 170.522 274.479 170.321 274.537 170.131C274.595 169.94 274.691 169.763 274.82 169.61C275.071 169.308 275.429 169.114 275.82 169.07L291.2 167.85C291.595 167.82 291.987 167.946 292.291 168.203C292.594 168.459 292.784 168.825 292.82 169.22L302.06 267.68C302.093 268.082 301.967 268.48 301.71 268.79C301.459 269.093 301.1 269.286 300.71 269.33L285.34 270.55L285.21 270.56ZM277.63 172L286.58 267.44L298.94 266.44L290 171L277.63 172Z" fill="#66A8F7"/>
<path d="M596.54 216.78L514.46 354.51C513.555 356.03 512.308 357.32 510.819 358.276C509.33 359.232 507.64 359.829 505.88 360.02L495.43 361.17L316.22 243C315.083 242.32 314.263 241.217 313.938 239.933C313.614 238.649 313.813 237.288 314.49 236.15L396.92 97.82C397.598 96.6814 398.701 95.8586 399.985 95.5323C401.27 95.2061 402.631 95.4031 403.77 96.08L594.77 209.92C595.338 210.253 595.834 210.695 596.23 211.221C596.627 211.746 596.916 212.345 597.08 212.982C597.244 213.62 597.281 214.283 597.189 214.935C597.096 215.587 596.876 216.214 596.54 216.78Z" fill="#03243B"/>
<path d="M382.611 101.452L300.186 239.777C298.773 242.149 299.55 245.218 301.922 246.631L492.949 360.461C495.321 361.874 498.39 361.097 499.804 358.725L582.229 220.401C583.642 218.029 582.865 214.96 580.493 213.546L389.466 99.7167C387.094 98.3031 384.025 99.0803 382.611 101.452Z" fill="white"/>
<path d="M495.5 362.69C494.331 362.69 493.183 362.372 492.18 361.77L301.18 247.93C299.698 247.046 298.628 245.61 298.204 243.938C297.781 242.265 298.038 240.493 298.92 239.01L381.35 100.67C382.236 99.1873 383.674 98.1167 385.348 97.6929C387.022 97.2692 388.796 97.5271 390.28 98.4098L581.28 212.25C582.76 213.135 583.829 214.571 584.252 216.243C584.676 217.915 584.42 219.686 583.54 221.17L501.1 359.51C500.665 360.249 500.087 360.895 499.4 361.41C498.714 361.925 497.932 362.299 497.1 362.51C496.576 362.633 496.039 362.694 495.5 362.69ZM386.92 100.52C386.316 100.519 385.722 100.675 385.196 100.973C384.67 101.271 384.23 101.701 383.92 102.22L301.49 240.56C301.018 241.353 300.881 242.301 301.108 243.195C301.334 244.09 301.907 244.858 302.7 245.33L493.7 359.17C494.094 359.404 494.529 359.558 494.982 359.623C495.436 359.688 495.897 359.663 496.34 359.55C496.785 359.448 497.206 359.259 497.577 358.993C497.948 358.726 498.262 358.389 498.5 358L580.93 219.66C581.403 218.868 581.542 217.921 581.317 217.026C581.092 216.132 580.522 215.364 579.73 214.89L388.7 101C388.16 100.685 387.546 100.519 386.92 100.52Z" fill="#03243B"/>
<path d="M590.69 216L510.69 350.28C509.059 353 506.417 354.963 503.342 355.741C500.266 356.519 497.009 356.047 494.28 354.43L316.65 248.54C315.34 247.76 307.49 238.14 308.27 236.84L388.52 102.17L401.83 100.17L589.73 212.17C590.049 212.354 590.327 212.601 590.549 212.895C590.771 213.189 590.931 213.525 591.021 213.882C591.11 214.239 591.127 214.611 591.07 214.974C591.014 215.338 590.884 215.687 590.69 216Z" fill="white"/>
<path d="M337.33 177.45L382.62 101.45C383.298 100.311 384.401 99.4885 385.685 99.1622C386.969 98.836 388.331 99.0329 389.47 99.7099L580.47 213.55C503.22 167.5 419 99.7899 337.33 177.45Z" fill="#DCE2EA"/>
<path d="M490.06 351.16C489.789 351.159 489.524 351.087 489.29 350.95L310.55 244.43C310.379 244.328 310.23 244.194 310.112 244.035C309.993 243.875 309.907 243.694 309.858 243.501C309.809 243.309 309.799 243.108 309.827 242.912C309.856 242.715 309.923 242.526 310.025 242.355C310.127 242.184 310.261 242.035 310.421 241.917C310.58 241.798 310.761 241.712 310.954 241.663C311.146 241.614 311.347 241.604 311.544 241.633C311.74 241.661 311.929 241.728 312.1 241.83L490.84 348.34C491.123 348.512 491.343 348.771 491.465 349.079C491.587 349.387 491.606 349.726 491.517 350.045C491.429 350.365 491.239 350.646 490.976 350.847C490.713 351.049 490.391 351.159 490.06 351.16Z" fill="#66A8F7"/>
<path d="M502.74 307.83C502.466 307.829 502.197 307.757 501.96 307.62C501.789 307.518 501.639 307.384 501.52 307.224C501.401 307.064 501.315 306.882 501.267 306.689C501.218 306.495 501.209 306.294 501.239 306.097C501.268 305.9 501.337 305.711 501.44 305.54L539.55 241.54C539.652 241.37 539.786 241.221 539.946 241.102C540.105 240.983 540.286 240.897 540.479 240.848C540.671 240.799 540.872 240.789 541.069 240.818C541.265 240.846 541.454 240.913 541.625 241.015C541.796 241.117 541.945 241.251 542.063 241.411C542.182 241.57 542.268 241.751 542.317 241.944C542.366 242.137 542.376 242.337 542.348 242.534C542.319 242.73 542.252 242.92 542.15 243.09L504 307.09C503.869 307.31 503.685 307.492 503.465 307.622C503.245 307.751 502.995 307.823 502.74 307.83Z" fill="#66A8F7"/>
<path d="M481.76 308.36C481.489 308.361 481.223 308.288 480.99 308.15L468.58 300.76C468.234 300.554 467.984 300.219 467.885 299.829C467.786 299.439 467.845 299.026 468.05 298.68L519 213.26C519.209 212.918 519.542 212.671 519.93 212.57C520.123 212.52 520.325 212.509 520.522 212.538C520.72 212.567 520.909 212.636 521.08 212.74L533.49 220.13C533.661 220.232 533.811 220.366 533.93 220.526C534.049 220.686 534.135 220.868 534.183 221.061C534.231 221.255 534.241 221.456 534.211 221.653C534.182 221.85 534.113 222.039 534.01 222.21L483.11 307.62C482.98 307.849 482.791 308.039 482.562 308.169C482.333 308.299 482.073 308.365 481.81 308.36H481.76ZM471.43 298.93L481.24 304.77L530.59 222L520.78 216.15L471.43 298.93Z" fill="#66A8F7"/>
<path d="M424.93 257.12C414.222 257.122 403.917 253.043 396.113 245.713C388.308 238.383 383.591 228.353 382.923 217.667C382.255 206.98 385.685 196.441 392.515 188.196C399.346 179.95 409.063 174.619 419.687 173.287C430.311 171.955 441.043 174.723 449.697 181.027C458.352 187.332 464.277 196.698 466.268 207.218C468.258 217.739 466.163 228.623 460.409 237.652C454.655 246.682 445.676 253.179 435.3 255.82C431.91 256.681 428.427 257.118 424.93 257.12ZM425.07 176.21C421.825 176.213 418.594 176.619 415.45 177.42C406.721 179.632 399.03 184.802 393.686 192.05C388.343 199.297 385.677 208.172 386.144 217.165C386.611 226.157 390.181 234.709 396.246 241.364C402.311 248.019 410.497 252.365 419.407 253.662C428.317 254.958 437.402 253.125 445.112 248.475C452.823 243.825 458.682 236.645 461.692 228.159C464.702 219.672 464.677 210.405 461.621 201.936C458.564 193.466 452.665 186.318 444.93 181.71C438.929 178.115 432.065 176.214 425.07 176.21Z" fill="#66A8F7"/>
<path d="M495.5 362.69C494.331 362.69 493.183 362.372 492.18 361.77L301.18 247.93C299.698 247.046 298.628 245.61 298.204 243.938C297.781 242.265 298.038 240.493 298.92 239.01L381.35 100.67C382.236 99.1873 383.674 98.1167 385.348 97.6929C387.022 97.2692 388.796 97.5271 390.28 98.4098L581.28 212.25C582.76 213.135 583.829 214.571 584.252 216.243C584.676 217.915 584.42 219.686 583.54 221.17L501.1 359.51C500.665 360.249 500.087 360.895 499.4 361.41C498.714 361.925 497.932 362.299 497.1 362.51C496.576 362.633 496.039 362.694 495.5 362.69ZM386.92 100.52C386.316 100.519 385.722 100.675 385.196 100.973C384.67 101.271 384.23 101.701 383.92 102.22L301.49 240.56C301.018 241.353 300.881 242.301 301.108 243.195C301.334 244.09 301.907 244.858 302.7 245.33L493.7 359.17C494.094 359.404 494.529 359.558 494.982 359.623C495.436 359.688 495.897 359.663 496.34 359.55C496.785 359.448 497.206 359.259 497.577 358.993C497.948 358.726 498.262 358.389 498.5 358L580.93 219.66C581.403 218.868 581.542 217.921 581.317 217.026C581.092 216.132 580.522 215.364 579.73 214.89L388.7 101C388.16 100.685 387.546 100.519 386.92 100.52Z" fill="#03243B"/>
<path d="M559.94 125.56C555.35 124.46 550.24 126.56 546.41 128.89C543.04 130.95 536.65 132.32 534.88 139.53C532.04 151.09 529.32 149.45 528.33 155.53C527.71 159.28 530.22 177.14 536.33 179.67C542.44 182.2 549.05 181.67 561.49 171.76C566.348 167.866 570.574 163.245 574.02 158.06C577.02 153.55 578.02 145.06 576.29 139.76C575.02 135.94 571.12 132.89 568.03 130.58C564.94 128.27 563.74 126.47 559.94 125.56Z" fill="white"/>
<path d="M542.41 182.47C540.133 182.448 537.882 181.972 535.79 181.07C528.39 178.07 526.24 158.84 526.79 155.28C527.102 153.131 527.936 151.091 529.22 149.34C530.39 147.57 531.851 145.34 533.371 139.17C534.941 132.78 539.751 130.47 543.271 128.79C544.131 128.38 544.941 127.99 545.581 127.6C549.341 125.29 554.951 122.81 560.251 124.09C562.744 124.695 565.035 125.948 566.891 127.72C567.521 128.24 568.161 128.78 568.941 129.36C572.641 132.14 576.37 135.19 577.73 139.29C579.66 145.07 578.531 154.05 575.281 158.9C571.739 164.197 567.405 168.918 562.431 172.9C553.551 180 547.45 182.47 542.41 182.47ZM557.311 126.77C553.431 126.77 549.441 128.77 547.201 130.18C546.421 130.65 545.551 131.07 544.621 131.52C541.321 133.1 537.62 134.89 536.35 139.89C534.7 146.59 533.08 149.04 531.79 151.01C530.727 152.399 530.038 154.038 529.79 155.77C529.15 159.65 531.931 176.22 536.921 178.27C542.441 180.54 548.571 180.1 560.551 170.58C565.286 166.778 569.411 162.273 572.781 157.22C575.481 153.22 576.481 145.09 574.871 140.22C573.781 136.96 570.451 134.22 567.141 131.77C566.301 131.14 565.59 130.55 564.97 130.03C563.467 128.565 561.599 127.529 559.561 127.03C558.823 126.856 558.068 126.769 557.311 126.77Z" fill="#03243B"/>
<path d="M565.93 143.46C565.03 142.05 565.83 143.19 562.63 143.95C560.985 144.288 559.296 144.353 557.63 144.14C550.06 143.34 542.3 139.74 537.75 133.07C530.75 122.8 530.59 109.95 538.75 100.75C541.55 97.59 545.45 93.85 549.51 92.85C550.614 92.586 551.738 92.4154 552.87 92.34C553.359 92.2949 553.851 92.2949 554.34 92.34C554.71 93.5 551.85 96.41 552.75 97.84C553.1 98.38 556.6 96.38 556.75 97.39C557.01 98.74 554.42 102.69 555.75 104.06C555.93 104.24 558.63 102.64 558.87 102.5C561.09 101.16 564.93 98.85 567.31 101.01C571.756 105.121 574.722 110.583 575.75 116.55C576.033 118.936 576.137 121.339 576.06 123.74C576.06 123.95 575.88 125.74 576.12 125.88C576.78 126.35 583.47 124.57 587.37 130.28C590.81 135.28 589.57 143.5 587.5 149.28C584.5 157.48 577.55 164.55 570.98 169.61C568.43 171.61 561.3 172.31 561.08 171.94C560.86 171.57 568.28 163.67 568.6 159.94C568.95 155.86 564.79 156.56 562.91 158.39C562.52 158.76 561.63 159.7 561.38 158.78C560.66 156.11 563.01 154.22 564.38 152.3C566.82 148.9 568.09 146.83 565.93 143.46Z" fill="#03243B"/>
<path d="M561.71 173.52C561.466 173.524 561.221 173.507 560.98 173.47C560.744 173.437 560.517 173.353 560.317 173.223C560.117 173.094 559.947 172.922 559.82 172.72C559.14 171.66 559.69 170.97 561.73 168.39C563.56 166.09 566.95 161.8 567.12 159.81C567.12 159.49 567.12 158.71 566.81 158.54C566.3 158.458 565.777 158.499 565.286 158.661C564.795 158.823 564.351 159.1 563.99 159.47C563.43 160.02 562.49 160.94 561.3 160.62C560.97 160.517 560.672 160.331 560.435 160.078C560.198 159.826 560.031 159.516 559.95 159.18C559.18 156.32 560.89 154.25 562.26 152.58C562.58 152.19 562.9 151.81 563.17 151.42C565.54 148.09 566.11 146.84 564.94 144.75C564.299 145.044 563.629 145.269 562.94 145.42C561.144 145.791 559.3 145.868 557.48 145.65C548.6 144.71 540.95 140.43 536.48 133.92C528.77 122.62 529.2 109.21 537.57 99.7502C541.78 94.9902 545.57 92.2602 549.11 91.3802C550.299 91.092 551.51 90.9047 552.73 90.8202C554.11 90.7302 555.41 90.6302 555.73 91.9402C556.07 92.9902 555.47 94.1102 554.83 95.3002C554.73 95.4702 554.61 95.7002 554.49 95.9402C554.933 95.7274 555.416 95.6111 555.907 95.599C556.399 95.5869 556.887 95.6794 557.34 95.8702C557.566 96.0018 557.761 96.1808 557.911 96.3948C558.061 96.6089 558.163 96.853 558.21 97.1102C558.263 98.2423 558.033 99.3697 557.54 100.39C557.41 100.73 557.22 101.25 557.07 101.75L558.01 101.21C560.47 99.7202 565.01 96.9602 568.26 99.8902C572.967 104.235 576.104 110.015 577.18 116.33C577.454 118.532 577.561 120.752 577.5 122.97V123.74C577.507 123.863 577.507 123.987 577.5 124.11C577.5 124.23 577.5 124.34 577.5 124.45C579.93 124.45 585.19 124.45 588.59 129.45C593.23 136.23 590 146.73 588.9 149.79C585.62 158.85 577.83 166.22 571.9 170.79C569.55 172.63 564 173.52 561.71 173.52ZM566.34 155.42C566.951 155.416 567.555 155.546 568.11 155.8C568.97 156.21 570.37 157.3 570.11 160.07C569.85 162.84 567.11 166.42 564.11 170.27C566.2 169.95 568.9 169.27 570.11 168.39C575.75 164.05 583.11 157.12 586.11 148.74C588.11 143.15 589.19 135.58 586.11 131.14C583.54 127.38 579.54 127.44 577.38 127.48C576.646 127.603 575.893 127.476 575.24 127.12C574.35 126.49 574.43 125.35 574.52 123.92V122.92C574.573 120.856 574.473 118.79 574.22 116.74C573.253 111.104 570.439 105.95 566.22 102.09C564.67 100.68 561.36 102.68 559.58 103.76C556.58 105.62 555.5 106.01 554.58 105.07C553.15 103.55 554 101.2 554.68 99.3102C554.72 99.2102 554.76 99.1002 554.8 98.9802C553.56 99.3902 552.16 99.8202 551.4 98.6102C550.4 97.0702 551.4 95.3102 552.12 93.8802C551.338 93.9581 550.563 94.0918 549.8 94.2802C546.9 95.0002 543.54 97.5002 539.8 101.72C532.38 110.1 532.04 122.06 538.94 132.18C542.82 137.87 549.85 141.76 557.73 142.6C559.209 142.783 560.708 142.729 562.17 142.44C562.854 142.304 563.505 142.04 564.09 141.66C564.3 141.492 564.543 141.37 564.803 141.303C565.063 141.236 565.335 141.225 565.6 141.27C565.919 141.362 566.214 141.522 566.464 141.74C566.715 141.958 566.914 142.227 567.05 142.53L565.82 143.42L567.1 142.61C569.89 146.98 567.77 149.97 565.53 153.14C565.22 153.58 564.86 154.02 564.53 154.47C564.041 155.028 563.596 155.623 563.2 156.25C564.158 155.708 565.239 155.422 566.34 155.42Z" fill="#03243B"/>
<path d="M567.44 139.24C567.377 139.25 567.312 139.25 567.25 139.24C567.098 139.19 566.972 139.082 566.899 138.94C566.826 138.797 566.812 138.632 566.86 138.48C568.033 135.419 569.747 132.594 571.92 130.14C572.46 129.47 572.99 128.8 573.52 128.14C573.567 128.074 573.627 128.019 573.695 127.976C573.764 127.933 573.841 127.905 573.921 127.892C574 127.879 574.082 127.882 574.161 127.9C574.24 127.919 574.314 127.953 574.38 128C574.445 128.047 574.501 128.107 574.544 128.176C574.586 128.245 574.615 128.321 574.628 128.401C574.641 128.481 574.638 128.562 574.619 128.641C574.601 128.72 574.567 128.794 574.52 128.86C573.99 129.57 573.44 130.26 572.9 130.94C570.9 133.41 569.09 135.75 568.04 138.94C567.981 139.044 567.892 139.128 567.785 139.182C567.678 139.235 567.558 139.255 567.44 139.24Z" fill="white"/>
<path d="M402.66 318.87C386.37 318.87 373.88 308.23 365.9 300.23C362.145 296.082 357.916 292.39 353.3 289.23C351.03 287.64 349.54 286.59 350.3 284.87C350.547 284.349 350.948 283.916 351.449 283.63C351.949 283.344 352.526 283.218 353.1 283.27C354.318 283.351 355.521 283.587 356.68 283.97C357.528 284.242 358.398 284.443 359.28 284.57C359.114 284.174 358.927 283.786 358.72 283.41L358.61 283.18C358.2 282.36 357.77 281.54 357.34 280.72C356.316 278.86 355.397 276.944 354.59 274.98C352.93 270.78 353.65 268.73 354.22 267.89C354.416 267.59 354.683 267.342 354.996 267.167C355.31 266.993 355.661 266.898 356.02 266.89C356.309 266.889 356.594 266.955 356.854 267.081C357.114 267.208 357.342 267.392 357.52 267.62C358.343 268.844 359.069 270.131 359.69 271.47C359.74 271.58 359.8 271.68 359.86 271.79C359.09 268.22 358.86 266.24 360.1 265.23C360.428 264.955 360.842 264.803 361.27 264.8C362.98 264.8 363.6 266.71 364.63 269.88C364.757 270.3 364.897 270.73 365.05 271.17C364.95 269.03 365.2 266.84 366.53 266.17C366.839 266.01 367.182 265.924 367.53 265.92C369.42 265.92 370.16 268.06 371.04 271.34C371.063 270.877 371.255 270.438 371.579 270.107C371.903 269.775 372.337 269.573 372.8 269.54H373C374.89 269.54 375.59 271.67 377.27 276.8C379.36 283.15 382.51 292.74 388.17 297.14C393.83 301.54 406.91 309.73 410.28 311.72L411.28 312.32L410.94 313.46C410.6 314.58 409.89 317.29 409.88 317.32L409.63 318.32L408.63 318.48C406.646 318.797 404.639 318.958 402.63 318.96L402.66 318.87Z" fill="white"/>
<path d="M361.3 266.28C362.14 266.28 363.01 269.99 364.09 272.9C366.09 278.18 367.55 277.97 367.78 278.07C367.646 277.143 367.442 276.227 367.17 275.33C366.79 274.33 366.04 268.08 367.22 267.49C367.324 267.433 367.441 267.402 367.56 267.4C368.18 267.4 368.75 268.46 369.67 271.92C371.32 278.17 373.46 280.19 373.47 280.2H373.63C375.17 280.2 372.74 273.2 372.63 271.77C372.63 271.65 372.42 271.05 372.98 271C375.18 271 377.82 291 387.22 298.28C392.87 302.67 405.93 310.86 409.49 312.96C409.14 314.12 408.42 316.87 408.42 316.87C406.506 317.182 404.57 317.339 402.63 317.34C386.2 317.34 373.84 306.06 366.94 299.14C357.24 288.59 351.03 286.87 351.67 285.47C351.805 285.219 352.013 285.016 352.267 284.887C352.521 284.758 352.808 284.71 353.09 284.75C354.85 284.75 357.7 286.06 359.5 286.06C359.771 286.093 360.046 286.055 360.297 285.947C360.548 285.84 360.767 285.669 360.93 285.45C361.29 284.9 360.17 282.91 359.93 282.45C358.61 279.8 357.06 277.18 355.93 274.38C354.23 270.07 355.27 268.32 355.93 268.32C355.991 268.322 356.05 268.337 356.104 268.365C356.157 268.392 356.204 268.432 356.24 268.48C357.54 270.12 360.61 277.63 361.88 277.63C361.92 277.639 361.961 277.639 362 277.63C363.18 277.09 359.6 267.45 361 266.35C361.065 266.298 361.147 266.269 361.23 266.27L361.3 266.28ZM361.23 263.27C360.454 263.269 359.701 263.538 359.1 264.03C358.492 264.512 358.057 265.179 357.86 265.93C357.305 265.554 356.651 265.352 355.98 265.35C355.387 265.366 354.807 265.524 354.288 265.811C353.77 266.098 353.328 266.506 353 267C352.09 268.33 351.39 270.88 353.21 275.5C354.037 277.516 354.979 279.482 356.03 281.39L356.51 282.31C355.415 281.962 354.278 281.763 353.13 281.72C352.264 281.667 351.402 281.877 350.656 282.321C349.911 282.765 349.316 283.423 348.95 284.21C347.65 287.07 350.19 288.86 352.44 290.43C356.956 293.516 361.091 297.124 364.76 301.18V301.23C372.93 309.42 385.76 320.31 402.59 320.31C404.69 320.313 406.787 320.145 408.86 319.81L410.81 319.5L411.31 317.59C411.31 317.59 412.02 314.88 412.31 313.78L412.99 311.51L410.99 310.31C407.75 308.4 394.58 300.15 389.04 295.84C383.74 291.72 380.68 282.39 378.65 276.22C376.84 270.69 375.93 267.92 372.94 267.92H372.66C372.318 267.948 371.981 268.026 371.66 268.15C370.88 266.03 369.74 264.29 367.49 264.29C366.903 264.293 366.324 264.433 365.8 264.7C365.345 264.94 364.951 265.282 364.65 265.7C363.89 264.19 362.9 263.22 361.22 263.22L361.23 263.27Z" fill="#03243B"/>
<path d="M538.28 350.22C526.35 350.22 514.84 347.22 505.87 341.77C496.37 336 490.98 328.77 487.29 316.77C487.16 316.33 484.04 306.02 487.15 302.22C487.313 302.008 487.522 301.835 487.761 301.716C488 301.596 488.263 301.533 488.53 301.53C488.955 301.553 489.362 301.711 489.691 301.98C490.02 302.25 490.255 302.618 490.36 303.03C490.51 303.375 490.637 303.729 490.74 304.09C490.74 302.19 490.74 301.14 490.74 300.74V300.45C490.88 298.99 491.13 296.26 493.2 296.15H493.3C493.72 296.15 494.131 296.269 494.485 296.494C494.839 296.719 495.122 297.04 495.3 297.42C495.332 297.171 495.379 296.924 495.44 296.68L495.5 296.41C495.8 295.11 496.42 292.41 498.57 292.41H498.94C499.99 292.59 500.65 293.41 501.1 294.7C501.76 293.42 502.66 292.44 503.88 292.44C504.449 292.447 504.997 292.652 505.43 293.02C506.55 293.95 506.43 295.67 506.25 297.5C506.25 297.65 506.25 297.78 506.25 297.87C506.157 299.754 506.24 301.642 506.5 303.51C506.6 304.51 506.71 305.59 506.77 306.65V306.94C506.77 307.51 506.82 307.94 506.85 308.21C507.56 307.656 508.228 307.051 508.85 306.4C510.31 304.93 511.69 303.53 513.3 303.53C513.858 303.532 514.4 303.711 514.85 304.04C517.3 305.83 515.93 309.34 514.72 312.44C514.129 313.666 513.741 314.98 513.57 316.33C514.39 322.4 519.79 326.08 529.64 327.27C531.264 327.457 532.896 327.55 534.53 327.55C545.62 327.55 556.83 323.68 563.1 317.7C572.9 308.35 580.66 288.87 585.63 275.04C586.63 272.31 588.29 265.78 589.63 260.53C591.03 255.06 591.63 252.77 591.95 252.08L592.1 251.75L592.39 251.52C593.91 250.34 596.39 249.77 600 249.77C605.35 249.77 611.94 251.1 614.12 252.02C616.667 253.242 618.987 254.888 620.98 256.89L621.62 257.54L621.34 258.42C621.29 258.57 616.41 273.42 613.34 281.86C611.971 285.347 610.322 288.718 608.41 291.94C606.321 295.372 604.602 299.016 603.28 302.81C603.205 303.372 603.277 303.944 603.49 304.47C603.822 305.294 603.942 306.187 603.841 307.069C603.74 307.951 603.42 308.793 602.91 309.52C601.91 310.85 600.27 311.11 599.05 311.3C598.77 311.3 598.37 311.41 598.15 311.47C596.874 313.338 595.712 315.282 594.67 317.29C593.296 319.993 591.676 322.564 589.83 324.97C586.294 329.04 582.421 332.803 578.25 336.22L577.25 337.06C567.69 345.42 553.47 350.22 538.28 350.22Z" fill="white"/>
<path d="M600 251.27C604.594 251.31 609.157 252.031 613.54 253.41C615.897 254.557 618.046 256.087 619.9 257.94C619.9 257.94 615.01 272.8 611.9 281.34C609.33 288.49 603.9 295.27 601.81 302.34C601.21 304.34 603.36 306.26 601.67 308.59C600.62 310.03 597.67 309.54 597.04 310.36C593.96 314.58 592.04 319.82 588.64 323.97C585.12 328.28 580.46 332.23 576.26 335.88C566.47 344.4 552.34 348.68 538.26 348.68C526.96 348.68 515.68 345.94 506.64 340.45C496.76 334.45 492 326.94 488.72 316.25C487.84 313.4 486.17 305.71 488.3 303.11C488.321 303.072 488.351 303.04 488.388 303.017C488.425 302.994 488.467 302.982 488.51 302.98C488.75 302.98 488.92 303.51 488.96 303.59C489.57 304.87 490.78 311.49 492.05 311.49C492.113 311.487 492.175 311.471 492.231 311.444C492.288 311.416 492.339 311.377 492.38 311.33C492.38 311.33 492.12 301.99 492.26 300.85C492.34 300.21 492.46 297.64 493.33 297.59C494.63 297.59 495.33 302.99 495.45 304C495.657 304.916 495.931 305.815 496.27 306.69C496.43 306.5 496.5 298.56 496.92 297.01C497.1 296.33 497.51 293.86 498.59 293.86H498.71C500.43 294.14 500.56 302.12 500.99 303.5C500.99 303.62 501.05 303.67 501.07 303.67C501.09 303.67 500.91 301.53 501 300.74C501.09 299.95 502.17 293.9 503.9 293.9C504.12 293.91 504.33 293.999 504.49 294.15C505.17 294.7 504.78 296.97 504.72 297.7C504.47 300.7 505.08 303.7 505.24 306.7C505.24 307.18 505.24 309.48 505.85 309.78C506.017 309.875 506.207 309.924 506.4 309.92C508.4 309.92 511.29 305.02 513.27 305.02C513.507 305.017 513.738 305.091 513.93 305.23C516.45 307.07 511.68 313.73 512.04 316.5C513.19 325.06 522.12 327.86 529.43 328.74C531.113 328.935 532.806 329.032 534.5 329.03C544.89 329.03 556.97 325.59 564.12 318.77C574.36 308.99 582.3 288.66 587.03 275.52C588.8 270.58 592.62 254.14 593.29 252.69C594.65 251.69 597.15 251.25 599.97 251.25L600 251.27ZM599.97 248.25C595.97 248.25 593.23 248.92 591.44 250.31L590.85 250.77L590.54 251.44C590.17 252.25 589.65 254.23 588.14 260.13C586.8 265.35 585.14 271.85 584.14 274.52C579.21 288.21 571.56 307.46 561.99 316.6C555.99 322.32 545.18 326.02 534.46 326.02C532.886 326.024 531.313 325.934 529.75 325.75C520.75 324.66 515.75 321.44 515.01 316.17C515.237 315.076 515.572 314.007 516.01 312.98C517.28 309.73 519.01 305.28 515.62 302.8C514.911 302.284 514.057 302.008 513.18 302.01C511.12 302.01 509.55 303.43 508.05 304.92C508 304.39 507.95 303.86 507.89 303.34C507.645 301.568 507.565 299.777 507.65 297.99C507.65 297.91 507.65 297.8 507.65 297.67C507.85 295.96 508.14 293.37 506.3 291.85C505.596 291.251 504.704 290.918 503.78 290.91C502.802 290.896 501.855 291.254 501.13 291.91C500.585 291.375 499.885 291.025 499.13 290.91C498.926 290.873 498.718 290.856 498.51 290.86C495.93 290.86 494.83 293.07 494.3 294.74C493.958 294.645 493.605 294.598 493.25 294.6H493.07C489.82 294.77 489.37 298.35 489.2 300.08C488.942 300.015 488.676 299.981 488.41 299.98C487.917 299.981 487.43 300.094 486.986 300.311C486.543 300.527 486.154 300.841 485.85 301.23C482.37 305.49 485.13 315.23 485.72 317.17C489.53 329.57 495.11 337.08 504.97 343.07C514.17 348.66 525.97 351.74 538.16 351.74C553.71 351.74 568.3 346.8 578.16 338.19L579.16 337.35C583.417 333.876 587.378 330.052 591 325.92C592.905 323.442 594.579 320.794 596 318.01C596.911 316.233 597.912 314.504 599 312.83H599.24C600.56 312.62 602.76 312.28 604.1 310.44C604.738 309.528 605.145 308.474 605.286 307.37C605.427 306.265 605.298 305.143 604.91 304.1C604.828 303.81 604.761 303.517 604.71 303.22C606.004 299.551 607.68 296.028 609.71 292.71C611.651 289.417 613.323 285.972 614.71 282.41C617.76 273.93 622.65 259.07 622.71 258.92L623.28 257.17L621.99 255.85C619.858 253.707 617.371 251.947 614.64 250.65C612.28 249.65 605.55 248.29 599.93 248.29L599.97 248.25Z" fill="#03243B"/>
</svg>
